<svg width="75" height="11" viewBox="0 0 75 11" fill="none" xmlns="http://www.w3.org/2000/svg">
<path d="M0.0664062 1.36328H1.47266V10H0.0664062V1.36328ZM2.55078 1.36328C2.91797 1.36328 3.28125 1.42188 3.64062 1.53906C4 1.65625 4.32031 1.83203 4.60156 2.06641C4.89062 2.30078 5.12109 2.58594 5.29297 2.92188C5.47266 3.25 5.5625 3.62109 5.5625 4.03516C5.5625 4.47266 5.48828 4.87109 5.33984 5.23047C5.19141 5.58203 4.98438 5.87891 4.71875 6.12109C4.45312 6.36328 4.13281 6.55078 3.75781 6.68359C3.38281 6.81641 2.96875 6.88281 2.51562 6.88281H1.95312V5.85156H2.76172C2.93359 5.85156 3.10156 5.82422 3.26562 5.76953C3.4375 5.70703 3.59375 5.60938 3.73438 5.47656C3.875 5.34375 3.98828 5.16016 4.07422 4.92578C4.16016 4.68359 4.20312 4.38672 4.20312 4.03516C4.20312 3.89453 4.18359 3.73438 4.14453 3.55469C4.10547 3.36719 4.02344 3.19141 3.89844 3.02734C3.78125 2.85547 3.61328 2.71484 3.39453 2.60547C3.17578 2.48828 2.88672 2.42969 2.52734 2.42969H1.95312V1.36328H2.55078ZM7.09766 0.894531H8.51562V10H7.09766V0.894531ZM12.0195 4.11719C12.1523 4.25 12.2539 4.40625 12.3242 4.58594C12.4023 4.75781 12.457 4.94141 12.4883 5.13672C12.5273 5.32422 12.5508 5.51562 12.5586 5.71094C12.5664 5.90625 12.5703 6.09766 12.5703 6.28516V9.76562V10H11.1406V6.40234C11.1406 6.13672 11.1289 5.88281 11.1055 5.64062C11.082 5.39844 11.0273 5.18359 10.9414 4.99609C10.8555 4.80859 10.7383 4.66406 10.5898 4.5625C10.4414 4.45312 10.2344 4.39844 9.96875 4.39844C9.85938 4.39844 9.71094 4.41797 9.52344 4.45703C9.34375 4.48828 9.16797 4.54297 8.99609 4.62109V3.71875C9.20703 3.60938 9.43359 3.51562 9.67578 3.4375C9.92578 3.35938 10.168 3.32031 10.4023 3.32031C10.7539 3.32031 11.0508 3.39453 11.293 3.54297C11.5352 3.68359 11.7773 3.875 12.0195 4.11719ZM15.3828 8.00781C15.3828 8.35938 15.4531 8.62109 15.5938 8.79297C15.7422 8.96484 15.9531 9.06641 16.2266 9.09766V10.0469C16.1953 10.0547 16.1445 10.0586 16.0742 10.0586C15.8086 10.0586 15.5508 10.0234 15.3008 9.95312C15.0586 9.88281 14.8438 9.76953 14.6562 9.61328C14.4688 9.45703 14.3203 9.25 14.2109 8.99219C14.1094 8.73438 14.0586 8.41797 14.0586 8.04297C14.0586 7.68359 14.1328 7.375 14.2812 7.11719C14.4375 6.85156 14.6328 6.63672 14.8672 6.47266C15.1094 6.30078 15.3828 6.17578 15.6875 6.09766C15.9922 6.01172 16.3008 5.96875 16.6133 5.96875H17.1289V6.80078H16.8711C16.7148 6.80078 16.5508 6.81641 16.3789 6.84766C16.207 6.87891 16.0469 6.9375 15.8984 7.02344C15.75 7.10938 15.625 7.23438 15.5234 7.39844C15.4297 7.55469 15.3828 7.75781 15.3828 8.00781ZM19.0273 8.04297C19.0273 8.10547 19.0312 8.19922 19.0391 8.32422C19.0469 8.44141 19.0625 8.5625 19.0859 8.6875C19.1094 8.8125 19.1445 8.92578 19.1914 9.02734C19.2461 9.12891 19.3164 9.19531 19.4023 9.22656L19.0273 10.0117C18.9258 10.0117 18.8164 9.98828 18.6992 9.94141C18.5898 9.89453 18.4805 9.82812 18.3711 9.74219C18.2695 9.65625 18.1797 9.5625 18.1016 9.46094C18.0312 9.35156 17.9766 9.23438 17.9375 9.10938C17.8594 9.30469 17.7031 9.48047 17.4688 9.63672C17.2422 9.78516 16.9883 9.89453 16.707 9.96484V9.07422C16.8945 9.03516 17.0625 8.96094 17.2109 8.85156C17.3672 8.73438 17.5 8.59766 17.6094 8.44141V5.96875C17.6094 5.58594 17.5898 5.28125 17.5508 5.05469C17.5117 4.82812 17.4453 4.66406 17.3516 4.5625C17.2578 4.45312 17.1406 4.38672 17 4.36328C16.8672 4.33203 16.707 4.31641 16.5195 4.31641C16.3477 4.31641 16.1836 4.33984 16.0273 4.38672C15.8789 4.42578 15.7383 4.47656 15.6055 4.53906C15.4805 4.59375 15.3672 4.65625 15.2656 4.72656C15.1719 4.79688 15.1016 4.85156 15.0547 4.89062L14.5273 4.08203C14.6055 3.99609 14.7227 3.91016 14.8789 3.82422C15.0352 3.73047 15.2148 3.64844 15.418 3.57812C15.6211 3.50781 15.8398 3.45312 16.0742 3.41406C16.3164 3.36719 16.5664 3.34375 16.8242 3.34375C17.0586 3.34375 17.2852 3.36719 17.5039 3.41406C17.7305 3.46094 17.9336 3.53906 18.1133 3.64844C18.3008 3.75781 18.4609 3.90625 18.5938 4.09375C18.7344 4.27344 18.832 4.5 18.8867 4.77344C18.9414 5.04688 18.9766 5.32422 18.9922 5.60547C19.0156 5.87891 19.0273 6.15234 19.0273 6.42578V7.94922V8.04297ZM21.1133 5.27734C21.1133 4.98047 21.168 4.71484 21.2773 4.48047C21.3867 4.23828 21.5391 4.03516 21.7344 3.87109C21.9297 3.69922 22.1484 3.56641 22.3906 3.47266C22.6406 3.37109 22.8984 3.30859 23.1641 3.28516V4.45703C22.9609 4.49609 22.8008 4.57812 22.6836 4.70312C22.5742 4.82812 22.5195 5.00391 22.5195 5.23047C22.5195 5.41797 22.5781 5.57031 22.6953 5.6875C22.8203 5.79688 22.9766 5.89453 23.1641 5.98047V7.23438C23.0312 7.19531 22.8945 7.15234 22.7539 7.10547C22.6211 7.05078 22.4883 6.99219 22.3555 6.92969C21.9414 6.71094 21.6289 6.48047 21.418 6.23828C21.2148 5.99609 21.1133 5.67578 21.1133 5.27734ZM25.0273 4.78516C24.8164 4.67578 24.5898 4.59375 24.3477 4.53906C24.1133 4.48438 23.8789 4.44922 23.6445 4.43359V3.27344C23.9961 3.28906 24.3203 3.33984 24.6172 3.42578C24.9141 3.50391 25.2031 3.63281 25.4844 3.8125L25.0273 4.78516ZM21.7344 8.52344C21.8906 8.63281 22.0742 8.73438 22.2852 8.82812C22.5039 8.92188 22.7773 8.96875 23.1055 8.96875H23.1641V10.0586C22.9688 10.0586 22.7891 10.0508 22.625 10.0352C22.4609 10.0273 22.2969 10.0039 22.1328 9.96484C21.9766 9.91797 21.8164 9.85547 21.6523 9.77734C21.4883 9.69922 21.3164 9.59766 21.1367 9.47266L21.7344 8.52344ZM23.6445 6.16797C23.8789 6.24609 24.1172 6.33203 24.3594 6.42578C24.6016 6.51953 24.8203 6.63672 25.0156 6.77734C25.2188 6.91797 25.3828 7.09375 25.5078 7.30469C25.6406 7.50781 25.707 7.76562 25.707 8.07812C25.707 8.38281 25.6523 8.64844 25.543 8.875C25.4336 9.10156 25.2852 9.29688 25.0977 9.46094C24.918 9.625 24.7031 9.75391 24.4531 9.84766C24.2031 9.94141 23.9336 10.0039 23.6445 10.0352V8.92188C23.9102 8.875 24.1133 8.79297 24.2539 8.67578C24.4023 8.55078 24.4766 8.38672 24.4766 8.18359C24.4766 7.98047 24.3945 7.82422 24.2305 7.71484C24.0742 7.59766 23.8789 7.49609 23.6445 7.41016V6.16797ZM30.6172 3.33203C31.0391 3.37109 31.418 3.48438 31.7539 3.67188C32.0977 3.85938 32.3906 4.10156 32.6328 4.39844C32.875 4.69531 33.0586 5.03516 33.1836 5.41797C33.3164 5.80078 33.3828 6.19922 33.3828 6.61328C33.3828 6.80078 33.3711 6.98828 33.3477 7.17578H29.3281V6.14453H32.0352C32.0352 5.94141 32 5.74609 31.9297 5.55859C31.8672 5.37109 31.7695 5.19922 31.6367 5.04297C31.5117 4.87891 31.3633 4.74219 31.1914 4.63281C31.0195 4.52344 30.8281 4.45703 30.6172 4.43359V3.33203ZM30.5703 8.89844C30.6562 8.89844 30.7617 8.89062 30.8867 8.875C31.0195 8.85156 31.1562 8.81641 31.2969 8.76953C31.4453 8.71484 31.5898 8.64844 31.7305 8.57031C31.8789 8.49219 32.0078 8.39844 32.1172 8.28906L32.6328 9.07422C32.375 9.39453 32.0742 9.63672 31.7305 9.80078C31.3867 9.96484 30.9492 10.0469 30.418 10.0469C29.9883 10.0469 29.5859 9.96094 29.2109 9.78906C28.8359 9.60938 28.5156 9.36719 28.25 9.0625C27.9844 8.75781 27.7734 8.40234 27.6172 7.99609C27.4609 7.58984 27.3828 7.15234 27.3828 6.68359C27.3828 6.23828 27.4531 5.81641 27.5938 5.41797C27.7422 5.01953 27.9414 4.67188 28.1914 4.375C28.4414 4.07031 28.7305 3.82422 29.0586 3.63672C29.3945 3.44922 29.7539 3.34375 30.1367 3.32031V4.44531C29.8477 4.5 29.6094 4.61719 29.4219 4.79688C29.2344 4.97656 29.0859 5.18359 28.9766 5.41797C28.875 5.64453 28.8008 5.87891 28.7539 6.12109C28.7148 6.36328 28.6953 6.57031 28.6953 6.74219C28.6953 7.04688 28.7305 7.33203 28.8008 7.59766C28.8789 7.85547 28.9961 8.08203 29.1523 8.27734C29.3086 8.46484 29.5 8.61719 29.7266 8.73438C29.9609 8.84375 30.2422 8.89844 30.5703 8.89844ZM43.7891 3.92969C43.7891 4.23438 43.7227 4.55078 43.5898 4.87891C43.457 5.19922 43.2812 5.51953 43.0625 5.83984C42.8438 6.15234 42.6016 6.45703 42.3359 6.75391C42.0781 7.05078 41.8164 7.33203 41.5508 7.59766C41.293 7.86328 41.0469 8.10547 40.8125 8.32422C40.5859 8.53516 40.3984 8.71484 40.25 8.86328H43.918V10H38.5508V8.6875C38.6914 8.5625 38.8867 8.39453 39.1367 8.18359C39.3867 7.96484 39.6562 7.72266 39.9453 7.45703C40.2344 7.19141 40.5234 6.91016 40.8125 6.61328C41.1016 6.30859 41.3633 6.00391 41.5977 5.69922C41.8398 5.38672 42.0352 5.08203 42.1836 4.78516C42.3398 4.48828 42.418 4.20703 42.418 3.94141C42.418 3.66797 42.3672 3.44141 42.2656 3.26172C42.1719 3.07422 42.0508 2.92188 41.9023 2.80469C41.7539 2.6875 41.5898 2.60547 41.4102 2.55859C41.2383 2.51172 41.0742 2.48828 40.918 2.48828C40.6133 2.48828 40.3594 2.5 40.1562 2.52344C39.9609 2.53906 39.7891 2.56641 39.6406 2.60547C39.4922 2.63672 39.3594 2.68359 39.2422 2.74609C39.125 2.80859 39 2.87891 38.8672 2.95703L38.457 2.08984C38.5977 1.96484 38.7695 1.85156 38.9727 1.75C39.1836 1.64844 39.3984 1.56641 39.6172 1.50391C39.8438 1.44141 40.0664 1.39453 40.2852 1.36328C40.5039 1.32422 40.707 1.30469 40.8945 1.30469C41.4023 1.30469 41.8359 1.38672 42.1953 1.55078C42.5625 1.71484 42.8633 1.92578 43.0977 2.18359C43.332 2.43359 43.5039 2.71484 43.6133 3.02734C43.7305 3.33984 43.7891 3.64062 43.7891 3.92969ZM55.1094 1.36328V2.32422H52.5312V10H51.1133V2.32422H48.5352V1.36328H55.1094ZM59.7852 3.33203C60.207 3.37109 60.5859 3.48438 60.9219 3.67188C61.2656 3.85938 61.5586 4.10156 61.8008 4.39844C62.043 4.69531 62.2266 5.03516 62.3516 5.41797C62.4844 5.80078 62.5508 6.19922 62.5508 6.61328C62.5508 6.80078 62.5391 6.98828 62.5156 7.17578H58.4961V6.14453H61.2031C61.2031 5.94141 61.168 5.74609 61.0977 5.55859C61.0352 5.37109 60.9375 5.19922 60.8047 5.04297C60.6797 4.87891 60.5312 4.74219 60.3594 4.63281C60.1875 4.52344 59.9961 4.45703 59.7852 4.43359V3.33203ZM59.7383 8.89844C59.8242 8.89844 59.9297 8.89062 60.0547 8.875C60.1875 8.85156 60.3242 8.81641 60.4648 8.76953C60.6133 8.71484 60.7578 8.64844 60.8984 8.57031C61.0469 8.49219 61.1758 8.39844 61.2852 8.28906L61.8008 9.07422C61.543 9.39453 61.2422 9.63672 60.8984 9.80078C60.5547 9.96484 60.1172 10.0469 59.5859 10.0469C59.1562 10.0469 58.7539 9.96094 58.3789 9.78906C58.0039 9.60938 57.6836 9.36719 57.418 9.0625C57.1523 8.75781 56.9414 8.40234 56.7852 7.99609C56.6289 7.58984 56.5508 7.15234 56.5508 6.68359C56.5508 6.23828 56.6211 5.81641 56.7617 5.41797C56.9102 5.01953 57.1094 4.67188 57.3594 4.375C57.6094 4.07031 57.8984 3.82422 58.2266 3.63672C58.5625 3.44922 58.9219 3.34375 59.3047 3.32031V4.44531C59.0156 4.5 58.7773 4.61719 58.5898 4.79688C58.4023 4.97656 58.2539 5.18359 58.1445 5.41797C58.043 5.64453 57.9688 5.87891 57.9219 6.12109C57.8828 6.36328 57.8633 6.57031 57.8633 6.74219C57.8633 7.04688 57.8984 7.33203 57.9688 7.59766C58.0469 7.85547 58.1641 8.08203 58.3203 8.27734C58.4766 8.46484 58.668 8.61719 58.8945 8.73438C59.1289 8.84375 59.4102 8.89844 59.7383 8.89844ZM64.3438 5.27734C64.3438 4.98047 64.3984 4.71484 64.5078 4.48047C64.6172 4.23828 64.7695 4.03516 64.9648 3.87109C65.1602 3.69922 65.3789 3.56641 65.6211 3.47266C65.8711 3.37109 66.1289 3.30859 66.3945 3.28516V4.45703C66.1914 4.49609 66.0312 4.57812 65.9141 4.70312C65.8047 4.82812 65.75 5.00391 65.75 5.23047C65.75 5.41797 65.8086 5.57031 65.9258 5.6875C66.0508 5.79688 66.207 5.89453 66.3945 5.98047V7.23438C66.2617 7.19531 66.125 7.15234 65.9844 7.10547C65.8516 7.05078 65.7188 6.99219 65.5859 6.92969C65.1719 6.71094 64.8594 6.48047 64.6484 6.23828C64.4453 5.99609 64.3438 5.67578 64.3438 5.27734ZM68.2578 4.78516C68.0469 4.67578 67.8203 4.59375 67.5781 4.53906C67.3438 4.48438 67.1094 4.44922 66.875 4.43359V3.27344C67.2266 3.28906 67.5508 3.33984 67.8477 3.42578C68.1445 3.50391 68.4336 3.63281 68.7148 3.8125L68.2578 4.78516ZM64.9648 8.52344C65.1211 8.63281 65.3047 8.73438 65.5156 8.82812C65.7344 8.92188 66.0078 8.96875 66.3359 8.96875H66.3945V10.0586C66.1992 10.0586 66.0195 10.0508 65.8555 10.0352C65.6914 10.0273 65.5273 10.0039 65.3633 9.96484C65.207 9.91797 65.0469 9.85547 64.8828 9.77734C64.7188 9.69922 64.5469 9.59766 64.3672 9.47266L64.9648 8.52344ZM66.875 6.16797C67.1094 6.24609 67.3477 6.33203 67.5898 6.42578C67.832 6.51953 68.0508 6.63672 68.2461 6.77734C68.4492 6.91797 68.6133 7.09375 68.7383 7.30469C68.8711 7.50781 68.9375 7.76562 68.9375 8.07812C68.9375 8.38281 68.8828 8.64844 68.7734 8.875C68.6641 9.10156 68.5156 9.29688 68.3281 9.46094C68.1484 9.625 67.9336 9.75391 67.6836 9.84766C67.4336 9.94141 67.1641 10.0039 66.875 10.0352V8.92188C67.1406 8.875 67.3438 8.79297 67.4844 8.67578C67.6328 8.55078 67.707 8.38672 67.707 8.18359C67.707 7.98047 67.625 7.82422 67.4609 7.71484C67.3047 7.59766 67.1094 7.49609 66.875 7.41016V6.16797ZM72.6641 7.99609C72.6641 8.26172 72.6992 8.46875 72.7695 8.61719C72.8398 8.76562 72.9375 8.87891 73.0625 8.95703C73.1953 9.03516 73.3398 9.08594 73.4961 9.10938C73.6602 9.125 73.832 9.13281 74.0117 9.13281V10C73.9102 10.0156 73.8086 10.0273 73.707 10.0352C73.6211 10.043 73.5156 10.0469 73.3906 10.0469C73.2734 10.0547 73.1562 10.0586 73.0391 10.0586C72.9219 10.0586 72.8008 10.0547 72.6758 10.0469C72.5586 10.0391 72.457 10.0273 72.3711 10.0117C72.1055 9.96484 71.8984 9.85156 71.75 9.67188C71.6016 9.48438 71.4883 9.28125 71.4102 9.0625C71.3398 8.83594 71.293 8.61719 71.2695 8.40625C71.2539 8.19531 71.2461 8.03125 71.2461 7.91406V4.35156H70.3789V3.39062H71.2461V1.51562H72.6641V3.39062H73.7188V4.35156H72.6641V7.99609Z" fill="#BF8139"/>
<path d="M0.0664062 1.36328V1.21328H-0.0835938V1.36328H0.0664062ZM1.47266 1.36328H1.62266V1.21328H1.47266V1.36328ZM1.47266 10V10.15H1.62266V10H1.47266ZM0.0664062 10H-0.0835938V10.15H0.0664062V10ZM4.60156 2.06641L4.50553 2.18165L4.50709 2.18292L4.60156 2.06641ZM5.29297 2.92188L5.15938 2.99022L5.1614 2.99392L5.29297 2.92188ZM5.33984 5.23047L5.47804 5.28882L5.47848 5.28773L5.33984 5.23047ZM1.95312 6.88281H1.80312V7.03281H1.95312V6.88281ZM1.95312 5.85156V5.70156H1.80312V5.85156H1.95312ZM3.26562 5.76953L3.31308 5.91189L3.31689 5.9105L3.26562 5.76953ZM4.07422 4.92578L4.21506 4.97742L4.21558 4.97594L4.07422 4.92578ZM4.14453 3.55469L3.99768 3.58528L3.99795 3.58655L4.14453 3.55469ZM3.89844 3.02734L3.77433 3.11196L3.77912 3.11825L3.89844 3.02734ZM3.39453 2.60547L3.32367 2.73774L3.32745 2.73963L3.39453 2.60547ZM1.95312 2.42969H1.80312V2.57969H1.95312V2.42969ZM1.95312 1.36328V1.21328H1.80312V1.36328H1.95312ZM0.0664062 1.51328H1.47266V1.21328H0.0664062V1.51328ZM1.32266 1.36328V10H1.62266V1.36328H1.32266ZM1.47266 9.85H0.0664062V10.15H1.47266V9.85ZM0.216406 10V1.36328H-0.0835938V10H0.216406ZM2.55078 1.51328C2.90171 1.51328 3.24932 1.56923 3.59412 1.68167L3.68713 1.39645C3.31318 1.27452 2.93423 1.21328 2.55078 1.21328V1.51328ZM3.59412 1.68167C3.936 1.79315 4.23938 1.95985 4.50553 2.18164L4.69759 1.95117C4.40124 1.70422 4.064 1.51935 3.68713 1.39645L3.59412 1.68167ZM4.50709 2.18292C4.77968 2.40394 4.99694 2.6726 5.15943 2.9902L5.42651 2.85355C5.24525 2.49927 5.00157 2.19762 4.69603 1.94989L4.50709 2.18292ZM5.1614 2.99392C5.32774 3.29767 5.4125 3.64353 5.4125 4.03516H5.7125C5.7125 3.59866 5.61757 3.20233 5.42453 2.84983L5.1614 2.99392ZM5.4125 4.03516C5.4125 4.45546 5.34126 4.83413 5.2012 5.1732L5.47848 5.28773C5.6353 4.90806 5.7125 4.48985 5.7125 4.03516H5.4125ZM5.20166 5.17212C5.06112 5.50496 4.86631 5.78356 4.61769 6.01025L4.81981 6.23194C5.10244 5.97425 5.32169 5.6591 5.47803 5.28881L5.20166 5.17212ZM4.61769 6.01025C4.36835 6.23758 4.06589 6.41535 3.70774 6.5422L3.80789 6.82499C4.19973 6.68621 4.5379 6.48898 4.81981 6.23194L4.61769 6.01025ZM3.70774 6.5422C3.35088 6.66858 2.95403 6.73281 2.51562 6.73281V7.03281C2.98347 7.03281 3.41474 6.96423 3.80789 6.82499L3.70774 6.5422ZM2.51562 6.73281H1.95312V7.03281H2.51562V6.73281ZM2.10313 6.88281V5.85156H1.80312V6.88281H2.10313ZM1.95312 6.00156H2.76172V5.70156H1.95312V6.00156ZM2.76172 6.00156C2.94982 6.00156 3.1338 5.97159 3.31306 5.91183L3.21819 5.62723C3.06933 5.67685 2.91737 5.70156 2.76172 5.70156V6.00156ZM3.31689 5.9105C3.5091 5.8406 3.68273 5.73166 3.83737 5.58561L3.63138 5.36751C3.50477 5.48709 3.3659 5.57346 3.21436 5.62856L3.31689 5.9105ZM3.83737 5.58561C3.99906 5.43291 4.12336 5.22748 4.21505 4.97742L3.93339 4.87414C3.8532 5.09283 3.75094 5.25459 3.63138 5.36751L3.83737 5.58561ZM4.21558 4.97594C4.30891 4.71293 4.35313 4.39796 4.35313 4.03516H4.05312C4.05312 4.37548 4.0114 4.65426 3.93285 4.87562L4.21558 4.97594ZM4.35313 4.03516C4.35313 3.88113 4.33179 3.70998 4.29111 3.52282L3.99795 3.58655C4.03539 3.75877 4.05312 3.90793 4.05312 4.03516H4.35313ZM4.29138 3.52409C4.24741 3.31303 4.15525 3.1169 4.01775 2.93644L3.77912 3.11825C3.89162 3.26591 3.96353 3.42134 3.99768 3.58528L4.29138 3.52409ZM4.02237 2.94284C3.88843 2.7464 3.6992 2.5901 3.46161 2.4713L3.32745 2.73963C3.52736 2.83959 3.67407 2.96454 3.7745 3.11184L4.02237 2.94284ZM3.46536 2.47325C3.21725 2.34033 2.9011 2.27969 2.52734 2.27969V2.57969C2.87233 2.57969 3.13431 2.63623 3.3237 2.73769L3.46536 2.47325ZM2.52734 2.27969H1.95312V2.57969H2.52734V2.27969ZM2.10313 2.42969V1.36328H1.80312V2.42969H2.10313ZM1.95312 1.51328H2.55078V1.21328H1.95312V1.51328ZM7.09766 0.894531V0.744531H6.94766V0.894531H7.09766ZM8.51562 0.894531H8.66563V0.744531H8.51562V0.894531ZM8.51562 10V10.15H8.66563V10H8.51562ZM7.09766 10H6.94766V10.15H7.09766V10ZM12.3242 4.58594L12.1843 4.64068L12.1877 4.64801L12.3242 4.58594ZM12.4883 5.13672L12.34 5.16044L12.3414 5.16731L12.4883 5.13672ZM12.5703 10V10.15H12.7203V10H12.5703ZM11.1406 10H10.9906V10.15H11.1406V10ZM10.5898 4.5625L10.5008 4.68333L10.5051 4.6863L10.5898 4.5625ZM9.52344 4.45703L9.54915 4.60489L9.55403 4.60388L9.52344 4.45703ZM8.99609 4.62109H8.84609V4.85404L9.05816 4.75765L8.99609 4.62109ZM8.99609 3.71875L8.92705 3.58559L8.84609 3.62756V3.71875H8.99609ZM9.67578 3.4375L9.63104 3.29432L9.62973 3.29474L9.67578 3.4375ZM11.293 3.54297L11.2146 3.6709L11.2176 3.67269L11.293 3.54297ZM7.09766 1.04453H8.51562V0.744531H7.09766V1.04453ZM8.36562 0.894531V10H8.66563V0.894531H8.36562ZM8.51562 9.85H7.09766V10.15H8.51562V9.85ZM7.24766 10V0.894531H6.94766V10H7.24766ZM11.9135 4.22325C12.0312 4.34103 12.1215 4.47964 12.1845 4.6406L12.4639 4.53128C12.3863 4.33286 12.2734 4.15897 12.1256 4.01112L11.9135 4.22325ZM12.1877 4.64801C12.26 4.8071 12.3109 4.97772 12.3402 5.16042L12.6364 5.11302C12.6031 4.90509 12.5447 4.70853 12.4608 4.52387L12.1877 4.64801ZM12.3414 5.16731C12.3788 5.34655 12.4012 5.52972 12.4087 5.71693L12.7085 5.70494C12.7003 5.50153 12.6759 5.30189 12.6351 5.10613L12.3414 5.16731ZM12.4087 5.71693C12.4164 5.91033 12.4203 6.09974 12.4203 6.28516H12.7203C12.7203 6.09557 12.7164 5.90217 12.7085 5.70494L12.4087 5.71693ZM12.4203 6.28516V9.76562H12.7203V6.28516H12.4203ZM12.4203 9.76562V10H12.7203V9.76562H12.4203ZM12.5703 9.85H11.1406V10.15H12.5703V9.85ZM11.2906 10V6.40234H10.9906V10H11.2906ZM11.2906 6.40234C11.2906 6.13233 11.2787 5.87358 11.2548 5.62618L10.9562 5.65507C10.9791 5.89205 10.9906 6.14111 10.9906 6.40234H11.2906ZM11.2548 5.62618C11.23 5.37028 11.1718 5.13873 11.0778 4.9336L10.805 5.05859C10.8829 5.22846 10.9341 5.4266 10.9562 5.65507L11.2548 5.62618ZM11.0778 4.9336C10.9822 4.72505 10.8486 4.55778 10.6745 4.4387L10.5051 4.6863C10.628 4.77034 10.7288 4.89213 10.805 5.05859L11.0778 4.9336ZM10.6788 4.44174C10.4955 4.30664 10.2528 4.24844 9.96875 4.24844V4.54844C10.2159 4.54844 10.3873 4.59961 10.5009 4.68326L10.6788 4.44174ZM9.96875 4.24844C9.84421 4.24844 9.68412 4.27034 9.49284 4.31018L9.55403 4.60388C9.73776 4.5656 9.87454 4.54844 9.96875 4.54844V4.24844ZM9.49774 4.30925C9.30506 4.34276 9.11709 4.40133 8.93402 4.48454L9.05816 4.75765C9.21885 4.68461 9.38244 4.6338 9.54914 4.60481L9.49774 4.30925ZM9.14609 4.62109V3.71875H8.84609V4.62109H9.14609ZM9.06514 3.85191C9.26819 3.74663 9.48701 3.65601 9.72183 3.58026L9.62973 3.29474C9.38018 3.37524 9.14587 3.47212 8.92705 3.58559L9.06514 3.85191ZM9.72052 3.58067C9.95772 3.50655 10.1848 3.47031 10.4023 3.47031V3.17031C10.1511 3.17031 9.89384 3.2122 9.63104 3.29433L9.72052 3.58067ZM10.4023 3.47031C10.7328 3.47031 11.001 3.53996 11.2146 3.67086L11.3714 3.41508C11.1006 3.2491 10.775 3.17031 10.4023 3.17031V3.47031ZM11.2176 3.67269C11.4464 3.80553 11.6785 3.98829 11.9135 4.22325L12.1256 4.01112C11.8762 3.76171 11.6239 3.56165 11.3683 3.41325L11.2176 3.67269ZM15.5938 8.79297L15.4776 8.88799L15.4802 8.89101L15.5938 8.79297ZM16.2266 9.09766H16.3766V8.96382L16.2436 8.94863L16.2266 9.09766ZM16.2266 10.0469L16.2629 10.1924L16.3766 10.164V10.0469H16.2266ZM15.3008 9.95312L15.259 10.0972L15.2602 10.0975L15.3008 9.95312ZM14.2109 8.99219L14.0713 9.04718L14.0729 9.05077L14.2109 8.99219ZM14.2812 7.11719L14.152 7.04113L14.1513 7.04234L14.2812 7.11719ZM14.8672 6.47266L14.9532 6.59554L14.954 6.59498L14.8672 6.47266ZM15.6875 6.09766L15.7248 6.243L15.7282 6.24202L15.6875 6.09766ZM17.1289 5.96875H17.2789V5.81875H17.1289V5.96875ZM17.1289 6.80078V6.95078H17.2789V6.80078H17.1289ZM15.5234 7.39844L15.3959 7.31948L15.3948 7.32126L15.5234 7.39844ZM19.0391 8.32422L18.8894 8.33358L18.8894 8.3342L19.0391 8.32422ZM19.1914 9.02734L19.055 9.09032L19.0593 9.09846L19.1914 9.02734ZM19.4023 9.22656L19.5377 9.29121L19.6089 9.14207L19.4536 9.08559L19.4023 9.22656ZM19.0273 10.0117V10.1617H19.1219L19.1627 10.0764L19.0273 10.0117ZM18.6992 9.94141L18.6401 10.0793L18.6435 10.0807L18.6992 9.94141ZM18.3711 9.74219L18.2741 9.85677L18.2784 9.86014L18.3711 9.74219ZM18.1016 9.46094L17.9749 9.54234L17.9827 9.55239L18.1016 9.46094ZM17.9375 9.10938L18.0807 9.06463L17.9549 8.66206L17.7982 9.05367L17.9375 9.10938ZM17.4688 9.63672L17.551 9.76219L17.552 9.76153L17.4688 9.63672ZM16.707 9.96484H16.557V10.157L16.7434 10.1104L16.707 9.96484ZM16.707 9.07422L16.6764 8.92737L16.557 8.95225V9.07422H16.707ZM17.2109 8.85156L17.2999 8.97233L17.3009 8.97156L17.2109 8.85156ZM17.6094 8.44141L17.7323 8.52743L17.7594 8.48869V8.44141H17.6094ZM17.3516 4.5625L17.2376 4.66018L17.2413 4.66424L17.3516 4.5625ZM17 4.36328L16.9656 4.50961L16.9753 4.51124L17 4.36328ZM16.0273 4.38672L16.0655 4.53186L16.0704 4.53039L16.0273 4.38672ZM15.6055 4.53906L15.6656 4.67654L15.6693 4.67479L15.6055 4.53906ZM15.2656 4.72656L15.1802 4.60314L15.1756 4.60656L15.2656 4.72656ZM15.0547 4.89062L14.929 4.97257L15.0212 5.11382L15.1507 5.00586L15.0547 4.89062ZM14.5273 4.08203L14.4164 3.98113L14.3384 4.06689L14.4017 4.16397L14.5273 4.08203ZM14.8789 3.82422L14.9512 3.95574L14.9561 3.95284L14.8789 3.82422ZM16.0742 3.41406L16.0989 3.56207L16.1027 3.56133L16.0742 3.41406ZM17.5039 3.41406L17.4725 3.56074L17.4735 3.56095L17.5039 3.41406ZM18.1133 3.64844L18.0353 3.77659L18.0377 3.778L18.1133 3.64844ZM18.5938 4.09375L18.4712 4.18055L18.4756 4.1862L18.5938 4.09375ZM18.9922 5.60547L18.8424 5.61379L18.8427 5.61828L18.9922 5.60547ZM15.2328 8.00781C15.2328 8.37502 15.3055 8.67757 15.4777 8.88795L15.7098 8.69798C15.6007 8.56462 15.5328 8.34373 15.5328 8.00781H15.2328ZM15.4802 8.89101C15.6583 9.09718 15.907 9.21211 16.2095 9.24669L16.2436 8.94863C15.9992 8.9207 15.8261 8.83251 15.7073 8.69493L15.4802 8.89101ZM16.0766 9.09766V10.0469H16.3766V9.09766H16.0766ZM16.1902 9.90135C16.1781 9.90437 16.1432 9.90859 16.0742 9.90859V10.2086C16.1459 10.2086 16.2125 10.205 16.2629 10.1924L16.1902 9.90135ZM16.0742 9.90859C15.822 9.90859 15.5779 9.87524 15.3414 9.80873L15.2602 10.0975C15.5237 10.1716 15.7952 10.2086 16.0742 10.2086V9.90859ZM15.3426 9.80907C15.1196 9.74433 14.9234 9.64061 14.7523 9.49805L14.5602 9.72851C14.7641 9.89845 14.9976 10.0213 15.259 10.0972L15.3426 9.80907ZM14.7523 9.49805C14.5856 9.35918 14.4505 9.17271 14.349 8.93361L14.0729 9.05077C14.1902 9.32729 14.3519 9.55488 14.5602 9.72851L14.7523 9.49805ZM14.3505 8.93721C14.2578 8.7019 14.2086 8.40539 14.2086 8.04297H13.9086C13.9086 8.43055 13.9609 8.76685 14.0714 9.04717L14.3505 8.93721ZM14.2086 8.04297C14.2086 7.70441 14.2784 7.42277 14.4112 7.19203L14.1513 7.04234C13.9872 7.32723 13.9086 7.66278 13.9086 8.04297H14.2086ZM14.4105 7.19324C14.5567 6.94469 14.7378 6.74634 14.9532 6.59554L14.7812 6.34977C14.5279 6.52709 14.3183 6.75843 14.152 7.04113L14.4105 7.19324ZM14.954 6.59498C15.1803 6.43435 15.4368 6.31679 15.7248 6.24296L15.6502 5.95236C15.3288 6.03477 15.0384 6.16721 14.7804 6.35033L14.954 6.59498ZM15.7282 6.24202C16.0198 6.15977 16.3147 6.11875 16.6133 6.11875V5.81875C16.2868 5.81875 15.9645 5.86366 15.6468 5.95329L15.7282 6.24202ZM16.6133 6.11875H17.1289V5.81875H16.6133V6.11875ZM16.9789 5.96875V6.80078H17.2789V5.96875H16.9789ZM17.1289 6.65078H16.8711V6.95078H17.1289V6.65078ZM16.8711 6.65078C16.7049 6.65078 16.5318 6.6674 16.3521 6.70008L16.4057 6.99524C16.5698 6.96541 16.7248 6.95078 16.8711 6.95078V6.65078ZM16.3521 6.70008C16.1635 6.73436 15.987 6.79886 15.8233 6.89362L15.9736 7.15325C16.1068 7.07614 16.2506 7.02345 16.4057 6.99524L16.3521 6.70008ZM15.8233 6.89362C15.6509 6.99342 15.5088 7.13708 15.3959 7.31948L15.651 7.47739C15.7412 7.33167 15.8491 7.22533 15.9736 7.15325L15.8233 6.89362ZM15.3948 7.32126C15.2828 7.50794 15.2328 7.74034 15.2328 8.00781H15.5328C15.5328 7.77529 15.5766 7.60143 15.6521 7.47561L15.3948 7.32126ZM18.8773 8.04297C18.8773 8.11033 18.8815 8.20789 18.8894 8.33358L19.1888 8.31486C19.181 8.19055 19.1773 8.10061 19.1773 8.04297H18.8773ZM18.8894 8.3342C18.8976 8.45778 18.9141 8.58478 18.9385 8.71514L19.2334 8.65986C19.2109 8.54022 19.1961 8.42504 19.1887 8.31424L18.8894 8.3342ZM18.9385 8.71514C18.9639 8.85067 19.0025 8.976 19.0552 9.0902L19.3276 8.96449C19.2866 8.87556 19.2548 8.77433 19.2334 8.65986L18.9385 8.71514ZM19.0593 9.09846C19.1268 9.22366 19.2222 9.32067 19.3511 9.36753L19.4536 9.08559C19.4106 9.06996 19.3654 9.03415 19.3235 8.95623L19.0593 9.09846ZM19.267 9.16192L18.892 9.94707L19.1627 10.0764L19.5377 9.29121L19.267 9.16192ZM19.0273 9.86172C18.9489 9.86172 18.8586 9.84358 18.7549 9.80213L18.6435 10.0807C18.7743 10.133 18.9027 10.1617 19.0273 10.1617V9.86172ZM18.7583 9.80353C18.6628 9.76259 18.5645 9.70342 18.4638 9.62424L18.2784 9.86014C18.3964 9.95283 18.5169 10.0265 18.6401 10.0793L18.7583 9.80353ZM18.468 9.62768C18.3742 9.54836 18.2918 9.46228 18.2205 9.36948L17.9827 9.55239C18.0675 9.66272 18.1648 9.76414 18.2742 9.8567L18.468 9.62768ZM18.2277 9.37982C18.1647 9.28184 18.1158 9.1769 18.0807 9.06463L17.7943 9.15412C17.8374 9.29185 17.8978 9.42129 17.9754 9.54205L18.2277 9.37982ZM17.7982 9.05367C17.7346 9.21269 17.6031 9.36689 17.3855 9.51191L17.552 9.76153C17.8032 9.59405 17.9841 9.39668 18.0768 9.16508L17.7982 9.05367ZM17.3865 9.51125C17.175 9.64986 16.9368 9.75279 16.6707 9.81932L16.7434 10.1104C17.0398 10.0363 17.3094 9.92045 17.551 9.76219L17.3865 9.51125ZM16.857 9.96484V9.07422H16.557V9.96484H16.857ZM16.7376 9.22107C16.9454 9.17778 17.1334 9.09499 17.2999 8.97232L17.122 8.7308C16.9916 8.82689 16.8437 8.89253 16.6764 8.92737L16.7376 9.22107ZM17.3009 8.97156C17.4696 8.84509 17.6136 8.69698 17.7323 8.52743L17.4865 8.35539C17.3864 8.49833 17.2648 8.62366 17.1209 8.73156L17.3009 8.97156ZM17.7594 8.44141V5.96875H17.4594V8.44141H17.7594ZM17.7594 5.96875C17.7594 5.58222 17.7398 5.26788 17.6986 5.0292L17.403 5.08017C17.4399 5.29462 17.4594 5.58966 17.4594 5.96875H17.7594ZM17.6986 5.0292C17.6575 4.79109 17.5843 4.59343 17.4618 4.46076L17.2413 4.66424C17.3064 4.73469 17.3659 4.86516 17.403 5.08017L17.6986 5.0292ZM17.4655 4.46488C17.3491 4.32908 17.2004 4.24461 17.0247 4.21532L16.9753 4.51124C17.0808 4.52882 17.1666 4.57717 17.2377 4.66012L17.4655 4.46488ZM17.0344 4.21727C16.887 4.18259 16.7146 4.16641 16.5195 4.16641V4.46641C16.6994 4.46641 16.8474 4.48147 16.9656 4.50929L17.0344 4.21727ZM16.5195 4.16641C16.3338 4.16641 16.1552 4.19176 15.9842 4.24304L16.0704 4.53039C16.212 4.48793 16.3615 4.46641 16.5195 4.46641V4.16641ZM15.9892 4.24166C15.8323 4.28294 15.683 4.33678 15.5416 4.40334L15.6693 4.67479C15.7935 4.61635 15.9255 4.56862 16.0655 4.53178L15.9892 4.24166ZM15.5453 4.40164C15.4124 4.4598 15.2905 4.52688 15.1802 4.60323L15.351 4.84989C15.4438 4.78562 15.5485 4.7277 15.6656 4.67649L15.5453 4.40164ZM15.1756 4.60656C15.0813 4.67729 15.0085 4.73382 14.9587 4.77539L15.1507 5.00586C15.1946 4.96931 15.2624 4.91646 15.3556 4.84656L15.1756 4.60656ZM15.1803 4.80868L14.653 4.00009L14.4017 4.16397L14.929 4.97257L15.1803 4.80868ZM14.6383 4.18293C14.701 4.11395 14.8025 4.03741 14.9512 3.95565L14.8066 3.69279C14.6428 3.7829 14.5099 3.87823 14.4164 3.98113L14.6383 4.18293ZM14.9561 3.95284C15.102 3.86528 15.272 3.78738 15.467 3.71987L15.3689 3.43638C15.1577 3.50949 14.9683 3.59566 14.8017 3.69559L14.9561 3.95284ZM15.467 3.71987C15.6614 3.65258 15.8719 3.59984 16.0989 3.56202L16.0496 3.2661C15.8077 3.30641 15.5808 3.36304 15.3689 3.43638L15.467 3.71987ZM16.1027 3.56133C16.3351 3.51635 16.5755 3.49375 16.8242 3.49375V3.19375C16.5573 3.19375 16.2977 3.21802 16.0457 3.2668L16.1027 3.56133ZM16.8242 3.49375C17.0485 3.49375 17.2645 3.51617 17.4725 3.56073L17.5353 3.26739C17.3058 3.2182 17.0687 3.19375 16.8242 3.19375V3.49375ZM17.4735 3.56095C17.6849 3.60469 17.8717 3.67697 18.0353 3.77657L18.1913 3.52031C17.9955 3.40115 17.776 3.31718 17.5343 3.26717L17.4735 3.56095ZM18.0377 3.778C18.2056 3.87597 18.3502 4.00938 18.4713 4.18045L18.7162 4.00705C18.5717 3.80312 18.3959 3.63966 18.1889 3.51887L18.0377 3.778ZM18.4756 4.1862C18.5989 4.34377 18.6885 4.54737 18.7396 4.80285L19.0338 4.74402C18.9755 4.45263 18.8698 4.2031 18.7119 4.0013L18.4756 4.1862ZM18.7396 4.80285C18.7929 5.06926 18.8272 5.33955 18.8424 5.61379L19.142 5.59715C19.1259 5.30888 19.0899 5.02449 19.0338 4.74402L18.7396 4.80285ZM18.8427 5.61828C18.8658 5.88747 18.8773 6.15664 18.8773 6.42578H19.1773C19.1773 6.14805 19.1654 5.87034 19.1416 5.59266L18.8427 5.61828ZM18.8773 6.42578V7.94922H19.1773V6.42578H18.8773ZM18.8773 7.94922V8.04297H19.1773V7.94922H18.8773ZM21.2773 4.48047L21.4133 4.54391L21.414 4.54221L21.2773 4.48047ZM21.7344 3.87109L21.8309 3.98598L21.8335 3.9837L21.7344 3.87109ZM22.3906 3.47266L22.4448 3.61256L22.4471 3.61163L22.3906 3.47266ZM23.1641 3.28516H23.3141V3.12134L23.1509 3.13574L23.1641 3.28516ZM23.1641 4.45703L23.1924 4.60433L23.3141 4.58093V4.45703H23.1641ZM22.6836 4.70312L22.5741 4.60047L22.5707 4.60435L22.6836 4.70312ZM22.6953 5.6875L22.589 5.7938L22.5965 5.80039L22.6953 5.6875ZM23.1641 5.98047H23.3141V5.88421L23.2266 5.84411L23.1641 5.98047ZM23.1641 7.23438L23.1217 7.37828L23.3141 7.43485V7.23438H23.1641ZM22.7539 7.10547L22.6967 7.2445L22.7065 7.24777L22.7539 7.10547ZM22.3555 6.92969L22.2853 7.06246L22.2916 7.06541L22.3555 6.92969ZM21.418 6.23828L21.303 6.33469L21.3049 6.3368L21.418 6.23828ZM25.0273 4.78516L24.9583 4.91832L25.0968 4.99012L25.1631 4.84895L25.0273 4.78516ZM24.3477 4.53906L24.3136 4.68514L24.3146 4.68538L24.3477 4.53906ZM23.6445 4.43359H23.4945V4.57393L23.6346 4.58326L23.6445 4.43359ZM23.6445 3.27344L23.6512 3.12359L23.4945 3.11662V3.27344H23.6445ZM24.6172 3.42578L24.5755 3.56991L24.579 3.57084L24.6172 3.42578ZM25.4844 3.8125L25.6201 3.87629L25.6762 3.75704L25.5651 3.6861L25.4844 3.8125ZM21.7344 8.52344L21.8204 8.40055L21.6914 8.31023L21.6074 8.44352L21.7344 8.52344ZM22.2852 8.82812L22.2242 8.96521L22.2261 8.966L22.2852 8.82812ZM23.1641 8.96875H23.3141V8.81875H23.1641V8.96875ZM23.1641 10.0586V10.2086H23.3141V10.0586H23.1641ZM22.625 10.0352L22.6392 9.88566L22.6321 9.88533L22.625 10.0352ZM22.1328 9.96484L22.0896 10.1088L22.0981 10.1108L22.1328 9.96484ZM21.1367 9.47266L21.0098 9.39273L20.9334 9.51397L21.0511 9.59579L21.1367 9.47266ZM23.6445 6.16797L23.692 6.02567L23.4945 5.95985V6.16797H23.6445ZM25.0156 6.77734L24.928 6.89909L24.9302 6.90067L25.0156 6.77734ZM25.5078 7.30469L25.3786 7.38123L25.3823 7.38677L25.5078 7.30469ZM25.0977 9.46094L24.9989 9.34803L24.9965 9.35016L25.0977 9.46094ZM23.6445 10.0352H23.4945V10.2022L23.6607 10.1843L23.6445 10.0352ZM23.6445 8.92188L23.6185 8.77416L23.4945 8.79603V8.92188H23.6445ZM24.2539 8.67578L24.3499 8.79102L24.3505 8.79052L24.2539 8.67578ZM24.2305 7.71484L24.1403 7.83503L24.1473 7.83965L24.2305 7.71484ZM23.6445 7.41016H23.4945V7.51492L23.5929 7.55099L23.6445 7.41016ZM21.2633 5.27734C21.2633 4.99915 21.3144 4.75568 21.4133 4.5439L21.1414 4.41704C21.0215 4.67401 20.9633 4.96179 20.9633 5.27734H21.2633ZM21.414 4.54221C21.5146 4.31964 21.6535 4.13494 21.8309 3.98595L21.6379 3.75624C21.4246 3.93538 21.2589 4.15693 21.1406 4.41873L21.414 4.54221ZM21.8335 3.9837C22.0155 3.82347 22.2191 3.6999 22.4448 3.61254L22.3365 3.33277C22.0778 3.43291 21.8438 3.57497 21.6353 3.75849L21.8335 3.9837ZM22.4471 3.61163C22.6834 3.51561 22.9267 3.45669 23.1772 3.43458L23.1509 3.13574C22.8702 3.1605 22.5978 3.22658 22.3342 3.33369L22.4471 3.61163ZM23.0141 3.28516V4.45703H23.3141V3.28516H23.0141ZM23.1357 4.30973C22.9081 4.3535 22.7172 4.448 22.5742 4.60053L22.793 4.80572C22.8844 4.70825 23.0138 4.63869 23.1924 4.60433L23.1357 4.30973ZM22.5707 4.60435C22.4299 4.76527 22.3695 4.98086 22.3695 5.23047H22.6695C22.6695 5.02695 22.7185 4.89098 22.7965 4.8019L22.5707 4.60435ZM22.3695 5.23047C22.3695 5.45206 22.4401 5.64446 22.5892 5.79357L22.8014 5.58143C22.7161 5.49616 22.6695 5.38388 22.6695 5.23047H22.3695ZM22.5965 5.80039C22.7347 5.92127 22.9039 6.02625 23.1016 6.11683L23.2266 5.84411C23.0492 5.76281 22.9059 5.67248 22.7941 5.57461L22.5965 5.80039ZM23.0141 5.98047V7.23438H23.3141V5.98047H23.0141ZM23.2064 7.09047C23.0754 7.05195 22.9404 7.00952 22.8013 6.96317L22.7065 7.24777C22.8487 7.29517 22.9871 7.33868 23.1217 7.37828L23.2064 7.09047ZM22.811 6.96677C22.6805 6.91304 22.55 6.85544 22.4193 6.79396L22.2916 7.06541C22.4266 7.12894 22.5617 7.18853 22.6968 7.24417L22.811 6.96677ZM22.4255 6.79706C22.021 6.58333 21.7257 6.3632 21.5311 6.13976L21.3049 6.3368C21.5321 6.59773 21.8618 6.83854 22.2854 7.06232L22.4255 6.79706ZM21.5329 6.14189C21.3578 5.93315 21.2633 5.64996 21.2633 5.27734H20.9633C20.9633 5.70161 21.0719 6.05904 21.303 6.33467L21.5329 6.14189ZM25.0964 4.65199C24.8736 4.53645 24.6348 4.45013 24.3807 4.39275L24.3146 4.68538C24.5449 4.73737 24.7593 4.81511 24.9583 4.91832L25.0964 4.65199ZM24.3817 4.39299C24.1396 4.3365 23.8972 4.30011 23.6545 4.28393L23.6346 4.58326C23.8606 4.59833 24.0869 4.63225 24.3136 4.68514L24.3817 4.39299ZM23.7945 4.43359V3.27344H23.4945V4.43359H23.7945ZM23.6379 3.42329C23.9792 3.43846 24.2915 3.48765 24.5755 3.56987L24.6589 3.2817C24.3492 3.19204 24.013 3.13967 23.6512 3.12359L23.6379 3.42329ZM24.579 3.57084C24.8596 3.64467 25.1344 3.76688 25.4036 3.9389L25.5651 3.6861C25.2719 3.49874 24.9686 3.36314 24.6554 3.28072L24.579 3.57084ZM25.3486 3.74871L24.8916 4.72137L25.1631 4.84895L25.6201 3.87629L25.3486 3.74871ZM21.6484 8.64632C21.8139 8.76223 22.0063 8.86832 22.2242 8.9652L22.3461 8.69105C22.1422 8.60043 21.9673 8.5034 21.8204 8.40055L21.6484 8.64632ZM22.2261 8.966C22.4691 9.07017 22.7642 9.11875 23.1055 9.11875V8.81875C22.7905 8.81875 22.5387 8.77358 22.3442 8.69025L22.2261 8.966ZM23.1055 9.11875H23.1641V8.81875H23.1055V9.11875ZM23.0141 8.96875V10.0586H23.3141V8.96875H23.0141ZM23.1641 9.90859C22.9727 9.90859 22.7978 9.90093 22.6392 9.88583L22.6108 10.1845C22.7803 10.2006 22.9648 10.2086 23.1641 10.2086V9.90859ZM22.6321 9.88533C22.4776 9.87797 22.3228 9.85589 22.1676 9.81892L22.0981 10.1108C22.271 10.1519 22.4443 10.1767 22.6179 10.185L22.6321 9.88533ZM22.1759 9.82117C22.0278 9.77673 21.8748 9.71712 21.7168 9.64191L21.5879 9.91277C21.7581 9.99382 21.9254 10.0592 22.0897 10.1085L22.1759 9.82117ZM21.7168 9.64191C21.5615 9.56793 21.3967 9.47076 21.2224 9.34952L21.0511 9.59579C21.2361 9.72455 21.4151 9.83051 21.5879 9.91277L21.7168 9.64191ZM21.2637 9.55258L21.8613 8.60336L21.6074 8.44352L21.0098 9.39273L21.2637 9.55258ZM23.5971 6.31027C23.8291 6.38761 24.0651 6.47273 24.3052 6.56567L24.4135 6.2859C24.1692 6.19133 23.9287 6.10458 23.692 6.02567L23.5971 6.31027ZM24.3052 6.56567C24.5365 6.65517 24.7438 6.76646 24.928 6.89907L25.1033 6.65561C24.8968 6.50697 24.6667 6.38389 24.4135 6.2859L24.3052 6.56567ZM24.9302 6.90067C25.1157 7.0291 25.2649 7.18895 25.3788 7.38116L25.6369 7.22822C25.5008 6.99855 25.3218 6.80684 25.101 6.65401L24.9302 6.90067ZM25.3823 7.38677C25.4951 7.55937 25.557 7.78648 25.557 8.07812H25.857C25.857 7.74477 25.7861 7.45626 25.6334 7.2226L25.3823 7.38677ZM25.557 8.07812C25.557 8.36492 25.5056 8.6074 25.4079 8.80979L25.6781 8.94021C25.7991 8.68947 25.857 8.4007 25.857 8.07812H25.557ZM25.4079 8.80979C25.3072 9.01836 25.171 9.19741 24.9989 9.34805L25.1964 9.57382C25.3993 9.39634 25.56 9.18476 25.6781 8.94021L25.4079 8.80979ZM24.9965 9.35016C24.8323 9.50014 24.6343 9.61951 24.4005 9.70721L24.5058 9.98811C24.7719 9.8883 25.0037 9.74986 25.1988 9.57171L24.9965 9.35016ZM24.4005 9.70721C24.1632 9.79617 23.9061 9.85601 23.6284 9.88603L23.6607 10.1843C23.9611 10.1518 24.243 10.0866 24.5058 9.98811L24.4005 9.70721ZM23.7945 10.0352V8.92188H23.4945V10.0352H23.7945ZM23.6706 9.06959C23.9506 9.02018 24.1819 8.93104 24.3499 8.79101L24.1579 8.56055C24.0447 8.6549 23.8697 8.72982 23.6185 8.77416L23.6706 9.06959ZM24.3505 8.79052C24.5346 8.63553 24.6266 8.4286 24.6266 8.18359H24.3266C24.3266 8.34484 24.2701 8.46604 24.1573 8.56104L24.3505 8.79052ZM24.6266 8.18359C24.6266 7.93213 24.521 7.72822 24.3137 7.59004L24.1473 7.83965C24.2681 7.92021 24.3266 8.02881 24.3266 8.18359H24.6266ZM24.3205 7.59484C24.1498 7.46683 23.9407 7.35897 23.6962 7.26932L23.5929 7.55099C23.8171 7.63321 23.9986 7.72848 24.1405 7.83484L24.3205 7.59484ZM23.7945 7.41016V6.16797H23.4945V7.41016H23.7945ZM30.6172 3.33203L30.631 3.18267L30.4672 3.1675V3.33203H30.6172ZM31.7539 3.67188L31.6808 3.80286L31.6821 3.80356L31.7539 3.67188ZM33.1836 5.41797L33.041 5.46454L33.0419 5.46713L33.1836 5.41797ZM33.3477 7.17578V7.32578H33.4801L33.4965 7.19439L33.3477 7.17578ZM29.3281 7.17578H29.1781V7.32578H29.3281V7.17578ZM29.3281 6.14453V5.99453H29.1781V6.14453H29.3281ZM32.0352 6.14453V6.29453H32.1852V6.14453H32.0352ZM31.9297 5.55859L31.7873 5.60606L31.7892 5.61126L31.9297 5.55859ZM31.6367 5.04297L31.5172 5.13401L31.5224 5.14012L31.6367 5.04297ZM30.6172 4.43359H30.4672V4.56785L30.6006 4.58268L30.6172 4.43359ZM30.8867 8.875L30.9053 9.02403L30.9128 9.02272L30.8867 8.875ZM31.2969 8.76953L31.3443 8.9119L31.3487 8.91028L31.2969 8.76953ZM31.7305 8.57031L31.6606 8.43754L31.6576 8.43919L31.7305 8.57031ZM32.1172 8.28906L32.2426 8.20672L32.1414 8.0527L32.0111 8.183L32.1172 8.28906ZM32.6328 9.07422L32.7497 9.16827L32.8182 9.08318L32.7582 8.99188L32.6328 9.07422ZM29.2109 9.78906L29.1461 9.92435L29.1484 9.92542L29.2109 9.78906ZM27.5938 5.41797L27.4532 5.36559L27.4523 5.36805L27.5938 5.41797ZM28.1914 4.375L28.3062 4.47163L28.3074 4.47015L28.1914 4.375ZM29.0586 3.63672L28.9855 3.50573L28.9842 3.50648L29.0586 3.63672ZM30.1367 3.32031H30.2867V3.16085L30.1276 3.17059L30.1367 3.32031ZM30.1367 4.44531L30.1646 4.5927L30.2867 4.56959V4.44531H30.1367ZM28.9766 5.41797L28.8406 5.35453L28.8397 5.35661L28.9766 5.41797ZM28.7539 6.12109L28.6066 6.09258L28.6058 6.09721L28.7539 6.12109ZM28.8008 7.59766L28.6557 7.63606L28.6572 7.64116L28.8008 7.59766ZM29.1523 8.27734L29.0352 8.37107L29.0371 8.37337L29.1523 8.27734ZM29.7266 8.73438L29.6576 8.86772L29.6631 8.8703L29.7266 8.73438ZM30.6034 3.48139C31.0065 3.51872 31.3649 3.62654 31.6808 3.80285L31.827 3.5409C31.471 3.34221 31.0716 3.22346 30.631 3.18267L30.6034 3.48139ZM31.6821 3.80356C32.0092 3.98197 32.2869 4.21176 32.5166 4.49326L32.749 4.30362C32.4943 3.99136 32.1861 3.73678 31.8257 3.54019L31.6821 3.80356ZM32.5166 4.49326C32.7465 4.77508 32.9214 5.09838 33.041 5.46453L33.3262 5.37141C33.1957 4.97193 33.0035 4.61554 32.749 4.30362L32.5166 4.49326ZM33.0419 5.46713C33.1691 5.83379 33.2328 6.21558 33.2328 6.61328H33.5328C33.5328 6.18285 33.4637 5.76777 33.3253 5.3688L33.0419 5.46713ZM33.2328 6.61328C33.2328 6.79451 33.2215 6.9758 33.1988 7.15718L33.4965 7.19439C33.5207 7.00076 33.5328 6.80705 33.5328 6.61328H33.2328ZM33.3477 7.02578H29.3281V7.32578H33.3477V7.02578ZM29.4781 7.17578V6.14453H29.1781V7.17578H29.4781ZM29.3281 6.29453H32.0352V5.99453H29.3281V6.29453ZM32.1852 6.14453C32.1852 5.92368 32.1469 5.71051 32.0701 5.50593L31.7892 5.61126C31.8531 5.78168 31.8852 5.95913 31.8852 6.14453H32.1852ZM32.072 5.51116C32.0032 5.30476 31.8958 5.11614 31.751 4.94582L31.5224 5.14012C31.6433 5.2823 31.7312 5.43742 31.7874 5.60603L32.072 5.51116ZM31.756 4.95206C31.6204 4.7741 31.4589 4.62526 31.2719 4.50626L31.1109 4.75936C31.2676 4.85912 31.403 4.98371 31.5174 5.13388L31.756 4.95206ZM31.2719 4.50626C31.0799 4.38407 30.8665 4.31037 30.6338 4.28451L30.6006 4.58268C30.7898 4.60369 30.9591 4.6628 31.1109 4.75936L31.2719 4.50626ZM30.7672 4.43359V3.33203H30.4672V4.43359H30.7672ZM30.5703 9.04844C30.6646 9.04844 30.7767 9.03992 30.9053 9.02384L30.8681 8.72616C30.7467 8.74133 30.6479 8.74844 30.5703 8.74844V9.04844ZM30.9128 9.02272C31.0535 8.99788 31.1974 8.96081 31.3443 8.91183L31.2494 8.62723C31.1151 8.672 30.9855 8.70524 30.8607 8.72728L30.9128 9.02272ZM31.3487 8.91028C31.5045 8.85289 31.6561 8.78324 31.8033 8.70144L31.6576 8.43919C31.5236 8.51363 31.3861 8.5768 31.245 8.62878L31.3487 8.91028ZM31.8003 8.70305C31.961 8.61849 32.1024 8.51602 32.2233 8.39513L32.0111 8.183C31.9133 8.28085 31.7968 8.36588 31.6606 8.43757L31.8003 8.70305ZM31.9918 8.3714L32.5074 9.15656L32.7582 8.99188L32.2426 8.20672L31.9918 8.3714ZM32.516 8.98017C32.2711 9.28438 31.9877 9.51179 31.6659 9.66541L31.7951 9.93615C32.1607 9.76165 32.4789 9.50468 32.7497 9.16827L32.516 8.98017ZM31.6659 9.66541C31.3486 9.81682 30.9351 9.89687 30.418 9.89687V10.1969C30.9633 10.1969 31.4248 10.1129 31.7951 9.93615L31.6659 9.66541ZM30.418 9.89687C30.0089 9.89687 29.628 9.81521 29.2734 9.6527L29.1484 9.92542C29.5439 10.1067 29.9676 10.1969 30.418 10.1969V9.89687ZM29.2758 9.65379C28.9186 9.48267 28.6149 9.25278 28.3631 8.96393L28.1369 9.16107C28.4164 9.48159 28.7532 9.73608 29.1461 9.92433L29.2758 9.65379ZM28.3631 8.96393C28.1098 8.67344 27.9076 8.33339 27.7572 7.94225L27.4772 8.04994C27.6392 8.4713 27.8589 8.84218 28.1369 9.16107L28.3631 8.96393ZM27.7572 7.94225C27.608 7.55446 27.5328 7.13536 27.5328 6.68359H27.2328C27.2328 7.16933 27.3138 7.62523 27.4772 8.04994L27.7572 7.94225ZM27.5328 6.68359C27.5328 6.25436 27.6005 5.84944 27.7352 5.46789L27.4523 5.36805C27.3057 5.78337 27.2328 6.2222 27.2328 6.68359H27.5328ZM27.7343 5.47034C27.8773 5.08648 28.0682 4.75414 28.3061 4.47162L28.0767 4.27838C27.8146 4.58961 27.6071 4.95258 27.4532 5.3656L27.7343 5.47034ZM28.3074 4.47015C28.5463 4.17897 28.8214 3.945 29.133 3.76696L28.9842 3.50648C28.6395 3.70344 28.3365 3.96165 28.0754 4.27985L28.3074 4.47015ZM29.1317 3.7677C29.4481 3.59112 29.7856 3.49209 30.1459 3.47003L30.1276 3.17059C29.7222 3.19541 29.341 3.30731 28.9855 3.50574L29.1317 3.7677ZM29.9867 3.32031V4.44531H30.2867V3.32031H29.9867ZM30.1088 4.29793C29.7951 4.35728 29.5293 4.4862 29.3181 4.68858L29.5257 4.90517C29.6895 4.74818 29.9002 4.64272 30.1646 4.5927L30.1088 4.29793ZM29.3181 4.68858C29.1172 4.88105 28.9579 5.10328 28.8406 5.35454L29.1125 5.4814C29.214 5.26391 29.3515 5.07208 29.5257 4.90517L29.3181 4.68858ZM28.8397 5.35661C28.7334 5.59362 28.6557 5.83901 28.6066 6.09259L28.9012 6.1496C28.9458 5.9188 29.0166 5.69544 29.1134 5.47933L28.8397 5.35661ZM28.6058 6.09721C28.566 6.34425 28.5453 6.55973 28.5453 6.74219H28.8453C28.8453 6.58089 28.8637 6.38231 28.902 6.14498L28.6058 6.09721ZM28.5453 6.74219C28.5453 7.05844 28.5818 7.35661 28.6558 7.63604L28.9458 7.55927C28.8791 7.30745 28.8453 7.03531 28.8453 6.74219H28.5453ZM28.6572 7.64116C28.7405 7.91581 28.8662 8.15972 29.0352 8.37105L29.2695 8.18364C29.126 8.00434 29.0174 7.79512 28.9443 7.55416L28.6572 7.64116ZM29.0371 8.37337C29.2067 8.57693 29.4141 8.74165 29.6576 8.86761L29.7955 8.60114C29.5859 8.49272 29.4104 8.35276 29.2676 8.18132L29.0371 8.37337ZM29.6631 8.8703C29.922 8.99109 30.226 9.04844 30.5703 9.04844V8.74844C30.2584 8.74844 29.9999 8.69641 29.79 8.59845L29.6631 8.8703ZM43.5898 4.87891L43.7284 4.93636L43.7289 4.93519L43.5898 4.87891ZM43.0625 5.83984L43.1854 5.92587L43.1864 5.92444L43.0625 5.83984ZM42.3359 6.75391L42.2241 6.65388L42.2227 6.65555L42.3359 6.75391ZM41.5508 7.59766L41.4447 7.49158L41.4431 7.49318L41.5508 7.59766ZM40.8125 8.32422L40.9147 8.434L40.9148 8.43388L40.8125 8.32422ZM40.25 8.86328L40.1439 8.75722L39.8879 9.01328H40.25V8.86328ZM43.918 8.86328H44.068V8.71328H43.918V8.86328ZM43.918 10V10.15H44.068V10H43.918ZM38.5508 10H38.4008V10.15H38.5508V10ZM38.5508 8.6875L38.4511 8.57539L38.4008 8.62014V8.6875H38.5508ZM39.1367 8.18359L39.2335 8.29826L39.2355 8.29648L39.1367 8.18359ZM40.8125 6.61328L40.92 6.71793L40.9213 6.71652L40.8125 6.61328ZM41.5977 5.69922L41.4791 5.60733L41.4788 5.60776L41.5977 5.69922ZM42.1836 4.78516L42.0508 4.71528L42.0494 4.71807L42.1836 4.78516ZM42.2656 3.26172L42.1313 3.32889L42.135 3.33553L42.2656 3.26172ZM41.4102 2.55859L41.3707 2.70332L41.3723 2.70374L41.4102 2.55859ZM40.1562 2.52344L40.1682 2.67305L40.1734 2.67245L40.1562 2.52344ZM39.6406 2.60547L39.6716 2.75243L39.6788 2.75053L39.6406 2.60547ZM38.8672 2.95703L38.7316 3.02117L38.8018 3.16954L38.9432 3.08632L38.8672 2.95703ZM38.457 2.08984L38.3574 1.97773L38.2734 2.05239L38.3214 2.15398L38.457 2.08984ZM38.9727 1.75L38.9076 1.61483L38.9056 1.61584L38.9727 1.75ZM39.6172 1.50391L39.5773 1.3593L39.576 1.35968L39.6172 1.50391ZM40.2852 1.36328L40.3064 1.51186L40.3115 1.51095L40.2852 1.36328ZM42.1953 1.55078L42.133 1.68724L42.1341 1.68773L42.1953 1.55078ZM43.0977 2.18359L42.9867 2.28451L42.9882 2.28618L43.0977 2.18359ZM43.6133 3.02734L43.4717 3.07691L43.4728 3.08001L43.6133 3.02734ZM43.6391 3.92969C43.6391 4.21223 43.5775 4.50953 43.4508 4.82263L43.7289 4.93519C43.8678 4.59203 43.9391 4.25652 43.9391 3.92969H43.6391ZM43.4513 4.82145C43.3229 5.13119 43.1522 5.44247 42.9386 5.75525L43.1864 5.92444C43.4103 5.5966 43.5912 5.26724 43.7284 4.93636L43.4513 4.82145ZM42.9396 5.75382C42.7244 6.06123 42.486 6.36126 42.2242 6.65389L42.4477 6.85393C42.7171 6.5528 42.9631 6.24346 43.1854 5.92586L42.9396 5.75382ZM42.2227 6.65555C41.9671 6.9499 41.7077 7.22856 41.4447 7.49159L41.6568 7.70372C41.9251 7.4355 42.1892 7.15167 42.4492 6.85226L42.2227 6.65555ZM41.4431 7.49318C41.1868 7.7573 40.9425 7.99773 40.7102 8.21456L40.9148 8.43388C41.1513 8.21321 41.3991 7.96926 41.6584 7.70213L41.4431 7.49318ZM40.7103 8.21443C40.483 8.42608 40.2941 8.60708 40.1439 8.75722L40.3561 8.96935C40.5028 8.82261 40.6889 8.64424 40.9147 8.434L40.7103 8.21443ZM40.25 9.01328H43.918V8.71328H40.25V9.01328ZM43.768 8.86328V10H44.068V8.86328H43.768ZM43.918 9.85H38.5508V10.15H43.918V9.85ZM38.7008 10V8.6875H38.4008V10H38.7008ZM38.6504 8.79961C38.7896 8.67587 38.9838 8.50885 39.2334 8.29824L39.04 8.06895C38.7896 8.28021 38.5932 8.44913 38.4511 8.57539L38.6504 8.79961ZM39.2355 8.29648C39.4866 8.0768 39.757 7.83379 40.0468 7.56748L39.8438 7.34658C39.5555 7.61153 39.2869 7.85289 39.0379 8.07071L39.2355 8.29648ZM40.0468 7.56748C40.338 7.29988 40.6291 7.01668 40.92 6.71792L40.705 6.50864C40.4178 6.80363 40.1307 7.08294 39.8438 7.34658L40.0468 7.56748ZM40.9213 6.71652C41.2136 6.40842 41.4787 6.09982 41.7165 5.79068L41.4788 5.60776C41.2478 5.908 40.9895 6.20877 40.7037 6.51004L40.9213 6.71652ZM41.7162 5.7911C41.9633 5.47228 42.1642 5.15934 42.3178 4.85224L42.0494 4.71807C41.9061 5.00472 41.7164 5.30115 41.4791 5.60733L41.7162 5.7911ZM42.3163 4.85502C42.481 4.54214 42.568 4.23694 42.568 3.94141H42.268C42.268 4.17712 42.1987 4.43442 42.0509 4.71529L42.3163 4.85502ZM42.568 3.94141C42.568 3.65023 42.514 3.39626 42.3962 3.18791L42.135 3.33553C42.2204 3.48655 42.268 3.68571 42.268 3.94141H42.568ZM42.3998 3.19464C42.2973 2.98959 42.1628 2.81921 41.9953 2.68696L41.8094 2.92242C41.9387 3.02454 42.0465 3.15885 42.1315 3.3288L42.3998 3.19464ZM41.9953 2.68696C41.8309 2.55717 41.6481 2.46566 41.448 2.41345L41.3723 2.70374C41.5315 2.74528 41.6769 2.81783 41.8094 2.92242L41.9953 2.68696ZM41.4496 2.41388C41.2666 2.36398 41.0893 2.33828 40.918 2.33828V2.63828C41.0592 2.63828 41.2099 2.65946 41.3707 2.70331L41.4496 2.41388ZM40.918 2.33828C40.61 2.33828 40.3499 2.3501 40.1391 2.37443L40.1734 2.67245C40.3688 2.6499 40.6165 2.63828 40.918 2.63828V2.33828ZM40.1443 2.37392C39.9424 2.39006 39.7614 2.41857 39.6025 2.46041L39.6788 2.75053C39.8167 2.71425 39.9795 2.68806 40.1682 2.67296L40.1443 2.37392ZM39.6097 2.45869C39.4494 2.49244 39.3029 2.54372 39.1716 2.61374L39.3128 2.87845C39.4159 2.82347 39.535 2.78099 39.6715 2.75225L39.6097 2.45869ZM39.1716 2.61374C39.0523 2.67736 38.9255 2.74872 38.7911 2.82774L38.9432 3.08632C39.0745 3.00909 39.1977 2.93982 39.3128 2.87845L39.1716 2.61374ZM39.0028 2.8929L38.5926 2.02571L38.3214 2.15398L38.7316 3.02117L39.0028 2.8929ZM38.5567 2.20196C38.6857 2.08729 38.846 1.98101 39.0397 1.88416L38.9056 1.61584C38.693 1.72212 38.5096 1.8424 38.3574 1.97773L38.5567 2.20196ZM39.0377 1.88515C39.2412 1.78718 39.4481 1.70823 39.6584 1.64813L39.576 1.35968C39.3488 1.42459 39.126 1.5097 38.9076 1.61485L39.0377 1.88515ZM39.6571 1.64851C39.8779 1.58759 40.0943 1.54207 40.3064 1.51177L40.2639 1.21479C40.0385 1.24699 39.8096 1.29522 39.5773 1.35931L39.6571 1.64851ZM40.3115 1.51095C40.5231 1.47316 40.7173 1.45469 40.8945 1.45469V1.15469C40.6967 1.15469 40.4847 1.17528 40.2588 1.21562L40.3115 1.51095ZM40.8945 1.45469C41.3868 1.45469 41.7979 1.53426 42.133 1.68723L42.2576 1.41433C41.8739 1.23918 41.4179 1.15469 40.8945 1.15469V1.45469ZM42.1341 1.68773C42.4853 1.84464 42.7682 2.04419 42.9867 2.28449L43.2086 2.08269C42.9584 1.80737 42.6397 1.58505 42.2565 1.41383L42.1341 1.68773ZM42.9882 2.28618C43.2088 2.52148 43.3695 2.78482 43.4717 3.0769L43.7549 2.97779C43.6383 2.64487 43.4552 2.3457 43.2071 2.081L42.9882 2.28618ZM43.4728 3.08001C43.5847 3.37824 43.6391 3.66116 43.6391 3.92969H43.9391C43.9391 3.62009 43.8763 3.30145 43.7537 2.97468L43.4728 3.08001ZM55.1094 1.36328H55.2594V1.21328H55.1094V1.36328ZM55.1094 2.32422V2.47422H55.2594V2.32422H55.1094ZM52.5312 2.32422V2.17422H52.3812V2.32422H52.5312ZM52.5312 10V10.15H52.6813V10H52.5312ZM51.1133 10H50.9633V10.15H51.1133V10ZM51.1133 2.32422H51.2633V2.17422H51.1133V2.32422ZM48.5352 2.32422H48.3852V2.47422H48.5352V2.32422ZM48.5352 1.36328V1.21328H48.3852V1.36328H48.5352ZM54.9594 1.36328V2.32422H55.2594V1.36328H54.9594ZM55.1094 2.17422H52.5312V2.47422H55.1094V2.17422ZM52.3812 2.32422V10H52.6813V2.32422H52.3812ZM52.5312 9.85H51.1133V10.15H52.5312V9.85ZM51.2633 10V2.32422H50.9633V10H51.2633ZM51.1133 2.17422H48.5352V2.47422H51.1133V2.17422ZM48.6852 2.32422V1.36328H48.3852V2.32422H48.6852ZM48.5352 1.51328H55.1094V1.21328H48.5352V1.51328ZM59.7852 3.33203L59.799 3.18267L59.6352 3.1675V3.33203H59.7852ZM60.9219 3.67188L60.8488 3.80286L60.85 3.80356L60.9219 3.67188ZM62.3516 5.41797L62.2089 5.46454L62.2098 5.46713L62.3516 5.41797ZM62.5156 7.17578V7.32578H62.648L62.6645 7.19439L62.5156 7.17578ZM58.4961 7.17578H58.3461V7.32578H58.4961V7.17578ZM58.4961 6.14453V5.99453H58.3461V6.14453H58.4961ZM61.2031 6.14453V6.29453H61.3531V6.14453H61.2031ZM61.0977 5.55859L60.9553 5.60606L60.9572 5.61126L61.0977 5.55859ZM60.8047 5.04297L60.6852 5.13401L60.6904 5.14012L60.8047 5.04297ZM59.7852 4.43359H59.6352V4.56785L59.7686 4.58268L59.7852 4.43359ZM60.0547 8.875L60.0733 9.02403L60.0808 9.02272L60.0547 8.875ZM60.4648 8.76953L60.5123 8.9119L60.5167 8.91028L60.4648 8.76953ZM60.8984 8.57031L60.8286 8.43754L60.8256 8.43919L60.8984 8.57031ZM61.2852 8.28906L61.4105 8.20672L61.3094 8.0527L61.1791 8.183L61.2852 8.28906ZM61.8008 9.07422L61.9176 9.16827L61.9861 9.08318L61.9262 8.99188L61.8008 9.07422ZM58.3789 9.78906L58.3141 9.92435L58.3164 9.92542L58.3789 9.78906ZM56.7617 5.41797L56.6211 5.36559L56.6203 5.36805L56.7617 5.41797ZM57.3594 4.375L57.4741 4.47163L57.4753 4.47015L57.3594 4.375ZM58.2266 3.63672L58.1535 3.50573L58.1521 3.50648L58.2266 3.63672ZM59.3047 3.32031H59.4547V3.16085L59.2955 3.17059L59.3047 3.32031ZM59.3047 4.44531L59.3326 4.5927L59.4547 4.56959V4.44531H59.3047ZM58.1445 5.41797L58.0086 5.35453L58.0077 5.35661L58.1445 5.41797ZM57.9219 6.12109L57.7745 6.09258L57.7738 6.09721L57.9219 6.12109ZM57.9688 7.59766L57.8237 7.63606L57.8252 7.64116L57.9688 7.59766ZM58.3203 8.27734L58.2032 8.37107L58.2051 8.37337L58.3203 8.27734ZM58.8945 8.73438L58.8256 8.86772L58.8311 8.8703L58.8945 8.73438ZM59.7713 3.48139C60.1745 3.51872 60.5329 3.62654 60.8488 3.80285L60.995 3.5409C60.639 3.34221 60.2396 3.22346 59.799 3.18267L59.7713 3.48139ZM60.85 3.80356C61.1771 3.98197 61.4549 4.21176 61.6846 4.49326L61.917 4.30362C61.6623 3.99136 61.3541 3.73678 60.9937 3.54019L60.85 3.80356ZM61.6846 4.49326C61.9145 4.77508 62.0894 5.09838 62.209 5.46453L62.4942 5.37141C62.3637 4.97193 62.1715 4.61554 61.917 4.30362L61.6846 4.49326ZM62.2098 5.46713C62.3371 5.83379 62.4008 6.21558 62.4008 6.61328H62.7008C62.7008 6.18285 62.6317 5.76777 62.4933 5.3688L62.2098 5.46713ZM62.4008 6.61328C62.4008 6.79451 62.3895 6.9758 62.3668 7.15718L62.6645 7.19439C62.6887 7.00076 62.7008 6.80705 62.7008 6.61328H62.4008ZM62.5156 7.02578H58.4961V7.32578H62.5156V7.02578ZM58.6461 7.17578V6.14453H58.3461V7.17578H58.6461ZM58.4961 6.29453H61.2031V5.99453H58.4961V6.29453ZM61.3531 6.14453C61.3531 5.92368 61.3148 5.71051 61.2381 5.50593L60.9572 5.61126C61.0211 5.78168 61.0531 5.95913 61.0531 6.14453H61.3531ZM61.24 5.51116C61.1712 5.30476 61.0637 5.11614 60.919 4.94582L60.6904 5.14012C60.8113 5.2823 60.8992 5.43742 60.9554 5.60603L61.24 5.51116ZM60.924 4.95206C60.7884 4.7741 60.6269 4.62526 60.4399 4.50626L60.2788 4.75936C60.4356 4.85912 60.571 4.98371 60.6854 5.13388L60.924 4.95206ZM60.4399 4.50626C60.2479 4.38407 60.0344 4.31037 59.8017 4.28451L59.7686 4.58268C59.9577 4.60369 60.1271 4.6628 60.2788 4.75936L60.4399 4.50626ZM59.9352 4.43359V3.33203H59.6352V4.43359H59.9352ZM59.7383 9.04844C59.8326 9.04844 59.9447 9.03992 60.0733 9.02384L60.0361 8.72616C59.9147 8.74133 59.8159 8.74844 59.7383 8.74844V9.04844ZM60.0808 9.02272C60.2215 8.99788 60.3654 8.96081 60.5123 8.91183L60.4174 8.62723C60.2831 8.672 60.1535 8.70524 60.0286 8.72728L60.0808 9.02272ZM60.5167 8.91028C60.6725 8.85289 60.824 8.78324 60.9713 8.70144L60.8256 8.43919C60.6916 8.51363 60.5541 8.5768 60.413 8.62878L60.5167 8.91028ZM60.9683 8.70305C61.129 8.61849 61.2703 8.51602 61.3912 8.39513L61.1791 8.183C61.0812 8.28085 60.9648 8.36588 60.8286 8.43757L60.9683 8.70305ZM61.1598 8.3714L61.6754 9.15656L61.9262 8.99188L61.4105 8.20672L61.1598 8.3714ZM61.6839 8.98017C61.4391 9.28438 61.1557 9.51179 60.8338 9.66541L60.963 9.93615C61.3287 9.76165 61.6469 9.50468 61.9176 9.16827L61.6839 8.98017ZM60.8338 9.66541C60.5166 9.81682 60.1031 9.89687 59.5859 9.89687V10.1969C60.1313 10.1969 60.5928 10.1129 60.963 9.93615L60.8338 9.66541ZM59.5859 9.89687C59.1769 9.89687 58.796 9.81521 58.4414 9.6527L58.3164 9.92542C58.7118 10.1067 59.1356 10.1969 59.5859 10.1969V9.89687ZM58.4437 9.65379C58.0866 9.48267 57.7829 9.25278 57.531 8.96393L57.3049 9.16107C57.5843 9.48159 57.9212 9.73608 58.3141 9.92433L58.4437 9.65379ZM57.531 8.96393C57.2778 8.67344 57.0756 8.33339 56.9252 7.94225L56.6452 8.04994C56.8072 8.4713 57.0269 8.84218 57.3049 9.16107L57.531 8.96393ZM56.9252 7.94225C56.776 7.55446 56.7008 7.13536 56.7008 6.68359H56.4008C56.4008 7.16933 56.4818 7.62523 56.6452 8.04994L56.9252 7.94225ZM56.7008 6.68359C56.7008 6.25436 56.7685 5.84944 56.9032 5.46789L56.6203 5.36805C56.4737 5.78337 56.4008 6.2222 56.4008 6.68359H56.7008ZM56.9023 5.47034C57.0453 5.08648 57.2362 4.75414 57.4741 4.47162L57.2446 4.27838C56.9825 4.58961 56.775 4.95258 56.6212 5.3656L56.9023 5.47034ZM57.4753 4.47015C57.7142 4.17897 57.9894 3.945 58.301 3.76696L58.1521 3.50648C57.8075 3.70344 57.5045 3.96165 57.2434 4.27985L57.4753 4.47015ZM58.2997 3.7677C58.616 3.59112 58.9536 3.49209 59.3139 3.47003L59.2955 3.17059C58.8902 3.19541 58.509 3.30731 58.1535 3.50574L58.2997 3.7677ZM59.1547 3.32031V4.44531H59.4547V3.32031H59.1547ZM59.2768 4.29793C58.9631 4.35728 58.6972 4.4862 58.4861 4.68858L58.6936 4.90517C58.8575 4.74818 59.0682 4.64272 59.3326 4.5927L59.2768 4.29793ZM58.4861 4.68858C58.2852 4.88105 58.1259 5.10328 58.0086 5.35454L58.2805 5.4814C58.382 5.26391 58.5195 5.07208 58.6936 4.90517L58.4861 4.68858ZM58.0077 5.35661C57.9014 5.59362 57.8237 5.83901 57.7746 6.09259L58.0691 6.1496C58.1138 5.9188 58.1845 5.69544 58.2814 5.47933L58.0077 5.35661ZM57.7738 6.09721C57.7339 6.34425 57.7133 6.55973 57.7133 6.74219H58.0133C58.0133 6.58089 58.0317 6.38231 58.07 6.14498L57.7738 6.09721ZM57.7133 6.74219C57.7133 7.05844 57.7498 7.35661 57.8237 7.63604L58.1138 7.55927C58.0471 7.30745 58.0133 7.03531 58.0133 6.74219H57.7133ZM57.8252 7.64116C57.9084 7.91581 58.0341 8.15972 58.2032 8.37105L58.4374 8.18364C58.294 8.00434 58.1853 7.79512 58.1123 7.55416L57.8252 7.64116ZM58.2051 8.37337C58.3747 8.57693 58.5821 8.74165 58.8256 8.86761L58.9634 8.60114C58.7538 8.49272 58.5784 8.35276 58.4355 8.18132L58.2051 8.37337ZM58.8311 8.8703C59.0899 8.99109 59.3939 9.04844 59.7383 9.04844V8.74844C59.4264 8.74844 59.1679 8.69641 58.958 8.59845L58.8311 8.8703ZM64.5078 4.48047L64.6438 4.54391L64.6445 4.54221L64.5078 4.48047ZM64.9648 3.87109L65.0613 3.98598L65.0639 3.9837L64.9648 3.87109ZM65.6211 3.47266L65.6753 3.61256L65.6776 3.61163L65.6211 3.47266ZM66.3945 3.28516H66.5445V3.12134L66.3813 3.13574L66.3945 3.28516ZM66.3945 4.45703L66.4229 4.60433L66.5445 4.58093V4.45703H66.3945ZM65.9141 4.70312L65.8046 4.60047L65.8012 4.60435L65.9141 4.70312ZM65.9258 5.6875L65.8195 5.7938L65.827 5.80039L65.9258 5.6875ZM66.3945 5.98047H66.5445V5.88421L66.457 5.84411L66.3945 5.98047ZM66.3945 7.23438L66.3522 7.37828L66.5445 7.43485V7.23438H66.3945ZM65.9844 7.10547L65.9271 7.2445L65.9369 7.24777L65.9844 7.10547ZM65.5859 6.92969L65.5158 7.06246L65.5221 7.06541L65.5859 6.92969ZM64.6484 6.23828L64.5335 6.33469L64.5353 6.3368L64.6484 6.23828ZM68.2578 4.78516L68.1888 4.91832L68.3272 4.99012L68.3936 4.84895L68.2578 4.78516ZM67.5781 4.53906L67.544 4.68514L67.5451 4.68538L67.5781 4.53906ZM66.875 4.43359H66.725V4.57393L66.865 4.58326L66.875 4.43359ZM66.875 3.27344L66.8817 3.12359L66.725 3.11662V3.27344H66.875ZM67.8477 3.42578L67.8059 3.56991L67.8095 3.57084L67.8477 3.42578ZM68.7148 3.8125L68.8506 3.87629L68.9066 3.75704L68.7956 3.6861L68.7148 3.8125ZM64.9648 8.52344L65.0509 8.40055L64.9218 8.31023L64.8379 8.44352L64.9648 8.52344ZM65.5156 8.82812L65.4547 8.96521L65.4565 8.966L65.5156 8.82812ZM66.3945 8.96875H66.5445V8.81875H66.3945V8.96875ZM66.3945 10.0586V10.2086H66.5445V10.0586H66.3945ZM65.8555 10.0352L65.8697 9.88566L65.8626 9.88533L65.8555 10.0352ZM65.3633 9.96484L65.3201 10.1088L65.3285 10.1108L65.3633 9.96484ZM64.3672 9.47266L64.2403 9.39273L64.1639 9.51397L64.2815 9.59579L64.3672 9.47266ZM66.875 6.16797L66.9224 6.02567L66.725 5.95985V6.16797H66.875ZM68.2461 6.77734L68.1584 6.89909L68.1607 6.90067L68.2461 6.77734ZM68.7383 7.30469L68.6091 7.38123L68.6127 7.38677L68.7383 7.30469ZM68.3281 9.46094L68.2293 9.34803L68.227 9.35016L68.3281 9.46094ZM66.875 10.0352H66.725V10.2022L66.8911 10.1843L66.875 10.0352ZM66.875 8.92188L66.8489 8.77416L66.725 8.79603V8.92188H66.875ZM67.4844 8.67578L67.5804 8.79102L67.581 8.79052L67.4844 8.67578ZM67.4609 7.71484L67.3708 7.83503L67.3777 7.83965L67.4609 7.71484ZM66.875 7.41016H66.725V7.51492L66.8234 7.55099L66.875 7.41016ZM64.4938 5.27734C64.4938 4.99915 64.5449 4.75568 64.6437 4.5439L64.3719 4.41704C64.252 4.67401 64.1937 4.96179 64.1937 5.27734H64.4938ZM64.6445 4.54221C64.745 4.31964 64.884 4.13494 65.0613 3.98595L64.8684 3.75624C64.6551 3.93538 64.4893 4.15693 64.3711 4.41873L64.6445 4.54221ZM65.0639 3.9837C65.246 3.82347 65.4496 3.6999 65.6752 3.61254L65.5669 3.33277C65.3083 3.43291 65.0743 3.57497 64.8657 3.75849L65.0639 3.9837ZM65.6776 3.61163C65.9139 3.51561 66.1571 3.45669 66.4077 3.43458L66.3813 3.13574C66.1007 3.1605 65.8283 3.22658 65.5646 3.33369L65.6776 3.61163ZM66.2445 3.28516V4.45703H66.5445V3.28516H66.2445ZM66.3662 4.30973C66.1386 4.3535 65.9476 4.448 65.8046 4.60053L66.0235 4.80572C66.1149 4.70825 66.2442 4.63869 66.4229 4.60433L66.3662 4.30973ZM65.8012 4.60435C65.6604 4.76527 65.6 4.98086 65.6 5.23047H65.9C65.9 5.02695 65.949 4.89098 66.0269 4.8019L65.8012 4.60435ZM65.6 5.23047C65.6 5.45206 65.6706 5.64446 65.8197 5.79357L66.0318 5.58143C65.9466 5.49616 65.9 5.38388 65.9 5.23047H65.6ZM65.827 5.80039C65.9652 5.92127 66.1344 6.02625 66.332 6.11683L66.457 5.84411C66.2797 5.76281 66.1364 5.67248 66.0246 5.57461L65.827 5.80039ZM66.2445 5.98047V7.23438H66.5445V5.98047H66.2445ZM66.4369 7.09047C66.3059 7.05195 66.1709 7.00952 66.0318 6.96317L65.9369 7.24777C66.0791 7.29517 66.2176 7.33868 66.3522 7.37828L66.4369 7.09047ZM66.0415 6.96677C65.911 6.91304 65.7804 6.85544 65.6498 6.79396L65.5221 7.06541C65.6571 7.12894 65.7921 7.18853 65.9273 7.24417L66.0415 6.96677ZM65.656 6.79706C65.2514 6.58333 64.9562 6.3632 64.7615 6.13976L64.5353 6.3368C64.7626 6.59773 65.0923 6.83854 65.5159 7.06232L65.656 6.79706ZM64.7634 6.14189C64.5883 5.93315 64.4938 5.64996 64.4938 5.27734H64.1937C64.1937 5.70161 64.3023 6.05904 64.5335 6.33467L64.7634 6.14189ZM68.3269 4.65199C68.104 4.53645 67.8653 4.45013 67.6112 4.39275L67.5451 4.68538C67.7753 4.73737 67.9897 4.81511 68.1888 4.91832L68.3269 4.65199ZM67.6122 4.39299C67.3701 4.3365 67.1277 4.30011 66.885 4.28393L66.865 4.58326C67.0911 4.59833 67.3174 4.63225 67.544 4.68514L67.6122 4.39299ZM67.025 4.43359V3.27344H66.725V4.43359H67.025ZM66.8683 3.42329C67.2096 3.43846 67.5219 3.48765 67.8059 3.56987L67.8894 3.2817C67.5796 3.19204 67.2435 3.13967 66.8817 3.12359L66.8683 3.42329ZM67.8095 3.57084C68.09 3.64467 68.3648 3.76688 68.6341 3.9389L68.7956 3.6861C68.5024 3.49874 68.199 3.36314 67.8858 3.28072L67.8095 3.57084ZM68.5791 3.74871L68.1221 4.72137L68.3936 4.84895L68.8506 3.87629L68.5791 3.74871ZM64.8788 8.64632C65.0444 8.76223 65.2367 8.86832 65.4547 8.9652L65.5765 8.69105C65.3726 8.60043 65.1978 8.5034 65.0509 8.40055L64.8788 8.64632ZM65.4565 8.966C65.6996 9.07017 65.9947 9.11875 66.3359 9.11875V8.81875C66.0209 8.81875 65.7691 8.77358 65.5747 8.69025L65.4565 8.966ZM66.3359 9.11875H66.3945V8.81875H66.3359V9.11875ZM66.2445 8.96875V10.0586H66.5445V8.96875H66.2445ZM66.3945 9.90859C66.2031 9.90859 66.0283 9.90093 65.8697 9.88583L65.8412 10.1845C66.0108 10.2006 66.1953 10.2086 66.3945 10.2086V9.90859ZM65.8626 9.88533C65.7081 9.87797 65.5533 9.85589 65.398 9.81892L65.3285 10.1108C65.5014 10.1519 65.6747 10.1767 65.8483 10.185L65.8626 9.88533ZM65.4064 9.82117C65.2582 9.77673 65.1052 9.71712 64.9473 9.64191L64.8183 9.91277C64.9885 9.99382 65.1558 10.0592 65.3202 10.1085L65.4064 9.82117ZM64.9473 9.64191C64.7919 9.56793 64.6271 9.47076 64.4528 9.34952L64.2815 9.59579C64.4666 9.72455 64.6456 9.83051 64.8183 9.91277L64.9473 9.64191ZM64.4941 9.55258L65.0918 8.60336L64.8379 8.44352L64.2403 9.39273L64.4941 9.55258ZM66.8276 6.31027C67.0596 6.38761 67.2956 6.47273 67.5357 6.56567L67.644 6.2859C67.3997 6.19133 67.1592 6.10458 66.9224 6.02567L66.8276 6.31027ZM67.5357 6.56567C67.7669 6.65517 67.9743 6.76646 68.1584 6.89907L68.3337 6.65561C68.1273 6.50697 67.8971 6.38389 67.644 6.2859L67.5357 6.56567ZM68.1607 6.90067C68.3462 7.0291 68.4953 7.18895 68.6092 7.38116L68.8673 7.22822C68.7312 6.99855 68.5522 6.80684 68.3315 6.65401L68.1607 6.90067ZM68.6127 7.38677C68.7256 7.55937 68.7875 7.78648 68.7875 8.07812H69.0875C69.0875 7.74477 69.0166 7.45626 68.8638 7.2226L68.6127 7.38677ZM68.7875 8.07812C68.7875 8.36492 68.7361 8.6074 68.6384 8.80979L68.9085 8.94021C69.0296 8.68947 69.0875 8.4007 69.0875 8.07812H68.7875ZM68.6384 8.80979C68.5377 9.01836 68.4015 9.19741 68.2293 9.34805L68.4269 9.57382C68.6297 9.39634 68.7905 9.18476 68.9085 8.94021L68.6384 8.80979ZM68.227 9.35016C68.0627 9.50014 67.8648 9.61951 67.6309 9.70721L67.7363 9.98811C68.0024 9.8883 68.2341 9.74986 68.4293 9.57171L68.227 9.35016ZM67.6309 9.70721C67.3937 9.79617 67.1365 9.85601 66.8589 9.88603L66.8911 10.1843C67.1916 10.1518 67.4735 10.0866 67.7363 9.98811L67.6309 9.70721ZM67.025 10.0352V8.92188H66.725V10.0352H67.025ZM66.9011 9.06959C67.1811 9.02018 67.4124 8.93104 67.5804 8.79101L67.3883 8.56055C67.2751 8.6549 67.1002 8.72982 66.8489 8.77416L66.9011 9.06959ZM67.581 8.79052C67.765 8.63553 67.857 8.4286 67.857 8.18359H67.557C67.557 8.34484 67.5006 8.46604 67.3878 8.56104L67.581 8.79052ZM67.857 8.18359C67.857 7.93213 67.7514 7.72822 67.5441 7.59004L67.3777 7.83965C67.4986 7.92021 67.557 8.02881 67.557 8.18359H67.857ZM67.5509 7.59484C67.3803 7.46683 67.1711 7.35897 66.9266 7.26932L66.8234 7.55099C67.0476 7.63321 67.2291 7.72848 67.3709 7.83484L67.5509 7.59484ZM67.025 7.41016V6.16797H66.725V7.41016H67.025ZM73.0625 8.95703L72.983 9.08428L72.9864 9.08632L73.0625 8.95703ZM73.4961 9.10938L73.4738 9.25793L73.4819 9.2587L73.4961 9.10938ZM74.0117 9.13281H74.1617V8.98281H74.0117V9.13281ZM74.0117 10L74.0345 10.1483L74.1617 10.1287V10H74.0117ZM73.707 10.0352L73.6955 9.88558L73.6935 9.88577L73.707 10.0352ZM73.3906 10.0469V9.89654L73.3806 9.89721L73.3906 10.0469ZM72.6758 10.0469L72.6658 10.1965L72.6664 10.1966L72.6758 10.0469ZM72.3711 10.0117L72.3979 9.86414L72.3972 9.864L72.3711 10.0117ZM71.75 9.67188L71.6324 9.765L71.6344 9.76741L71.75 9.67188ZM71.4102 9.0625L71.2668 9.107L71.2689 9.11295L71.4102 9.0625ZM71.2695 8.40625L71.1198 8.41734L71.1204 8.42281L71.2695 8.40625ZM71.2461 4.35156H71.3961V4.20156H71.2461V4.35156ZM70.3789 4.35156H70.2289V4.50156H70.3789V4.35156ZM70.3789 3.39062V3.24062H70.2289V3.39062H70.3789ZM71.2461 3.39062V3.54063H71.3961V3.39062H71.2461ZM71.2461 1.51562V1.36562H71.0961V1.51562H71.2461ZM72.6641 1.51562H72.8141V1.36562H72.6641V1.51562ZM72.6641 3.39062H72.5141V3.54063H72.6641V3.39062ZM73.7188 3.39062H73.8688V3.24062H73.7188V3.39062ZM73.7188 4.35156V4.50156H73.8688V4.35156H73.7188ZM72.6641 4.35156V4.20156H72.5141V4.35156H72.6641ZM72.5141 7.99609C72.5141 8.27179 72.5501 8.50424 72.634 8.6814L72.9051 8.55297C72.8484 8.43326 72.8141 8.25164 72.8141 7.99609H72.5141ZM72.634 8.6814C72.7151 8.8527 72.831 8.9892 72.983 9.08423L73.142 8.82983C73.044 8.76861 72.9646 8.67855 72.9051 8.55297L72.634 8.6814ZM72.9864 9.08632C73.1362 9.17443 73.2991 9.2315 73.4738 9.25772L73.5183 8.96103C73.3806 8.94037 73.2544 8.89588 73.1386 8.82774L72.9864 9.08632ZM73.4819 9.2587C73.6511 9.27481 73.8277 9.28281 74.0117 9.28281V8.98281C73.8364 8.98281 73.6693 8.97519 73.5103 8.96005L73.4819 9.2587ZM73.8617 9.13281V10H74.1617V9.13281H73.8617ZM73.9889 9.85174C73.8911 9.8668 73.7933 9.87808 73.6955 9.8856L73.7185 10.1847C73.8239 10.1766 73.9292 10.1645 74.0345 10.1483L73.9889 9.85174ZM73.6935 9.88577C73.6135 9.89304 73.5129 9.89687 73.3906 9.89687V10.1969C73.5183 10.1969 73.6287 10.1929 73.7206 10.1845L73.6935 9.88577ZM73.3806 9.89721C73.2668 9.9048 73.1529 9.90859 73.0391 9.90859V10.2086C73.1596 10.2086 73.2801 10.2046 73.4006 10.1965L73.3806 9.89721ZM73.0391 9.90859C72.9252 9.90859 72.8072 9.9048 72.6851 9.89717L72.6664 10.1966C72.7943 10.2046 72.9185 10.2086 73.0391 10.2086V9.90859ZM72.6858 9.89721C72.5724 9.88965 72.4768 9.87847 72.3979 9.86414L72.3443 10.1593C72.4373 10.1762 72.5448 10.1885 72.6658 10.1965L72.6858 9.89721ZM72.3972 9.864C72.1608 9.82229 71.9879 9.72429 71.8656 9.57634L71.6344 9.76741C71.809 9.97883 72.0501 10.1074 72.345 10.1594L72.3972 9.864ZM71.8676 9.57877C71.729 9.40372 71.6239 9.21493 71.5514 9.01205L71.2689 9.11295C71.3527 9.34757 71.4741 9.56503 71.6324 9.76498L71.8676 9.57877ZM71.5534 9.01804C71.4856 8.79952 71.4409 8.59013 71.4186 8.38969L71.1204 8.42281C71.1451 8.64424 71.1941 8.87235 71.2669 9.10696L71.5534 9.01804ZM71.4191 8.39517C71.4036 8.1855 71.3961 8.02573 71.3961 7.91406H71.0961C71.0961 8.03677 71.1042 8.20513 71.1199 8.41733L71.4191 8.39517ZM71.3961 7.91406V4.35156H71.0961V7.91406H71.3961ZM71.2461 4.20156H70.3789V4.50156H71.2461V4.20156ZM70.5289 4.35156V3.39062H70.2289V4.35156H70.5289ZM70.3789 3.54063H71.2461V3.24062H70.3789V3.54063ZM71.3961 3.39062V1.51562H71.0961V3.39062H71.3961ZM71.2461 1.66563H72.6641V1.36562H71.2461V1.66563ZM72.5141 1.51562V3.39062H72.8141V1.51562H72.5141ZM72.6641 3.54063H73.7188V3.24062H72.6641V3.54063ZM73.5687 3.39062V4.35156H73.8688V3.39062H73.5687ZM73.7188 4.20156H72.6641V4.50156H73.7188V4.20156ZM72.5141 4.35156V7.99609H72.8141V4.35156H72.5141Z" fill="url(#paint0_linear_677_631)"/>
<defs>
<linearGradient id="paint0_linear_677_631" x1="37" y1="-2" x2="37" y2="13" gradientUnits="userSpaceOnUse">
<stop stop-color="white"/>
<stop offset="1" stop-color="white" stop-opacity="0"/>
</linearGradient>
</defs>
</svg>
